<svg xmlns="http://www.w3.org/2000/svg" width="720" height="512" viewBox="0 0 720 512" role="img"><style>
svg{--surface:#fcfcfb;--ink:#0b0b0b;--ink2:#52514e;--grid:#e4e3df;--axis:#a3a29d;--s1:#2a78d6;--s2:#eb6834;--s3:#1baf7a;--none:#d6d5d0}
@media (prefers-color-scheme: dark){svg{--surface:#1a1a19;--ink:#ffffff;--ink2:#c3c2b7;--grid:#33332f;--axis:#6b6a65;--s1:#3987e5;--s2:#d95926;--s3:#199e70;--none:#4a4945}}
text{font-family:system-ui,-apple-system,"Segoe UI",Roboto,sans-serif;font-size:11px;fill:var(--ink2)}
.t{fill:var(--ink);font-size:14px;font-weight:600}.st{font-size:11.5px}.v{fill:var(--ink)}
.g{stroke:var(--grid);stroke-width:1}.ax{stroke:var(--axis);stroke-width:1}
.l1,.l2,.l3{fill:none;stroke-width:2;stroke-linejoin:round;stroke-linecap:round}
.l1{stroke:var(--s1)}.l2{stroke:var(--s2)}.l3{stroke:var(--s3)}
.f1{fill:var(--s1)}.f2{fill:var(--s2)}.f3{fill:var(--s3)}.f0{fill:var(--none)}
.ring{stroke:var(--surface);stroke-width:2}.bg{fill:var(--surface)}
</style><rect class="bg" width="720" height="512" rx="6"/><text x="16.0" y="24.0" class="t" text-anchor="start">pol_switch_rmax_mr vs BTC_HOLD on the 20 STRESS windows</text><text x="16.0" y="42.0" class="st" text-anchor="start">10 sharpest BTC drops and 10 sharpest rebounds (gate G6)</text><rect x="16.0" y="54.0" width="14" height="4" rx="2" class="f1"/><text x="35.0" y="59.0" text-anchor="start">pol_switch_rmax_mr</text><rect x="159.0" y="54.0" width="14" height="4" rx="2" class="f2"/><text x="178.0" y="59.0" text-anchor="start">BTC_HOLD</text><line class="g" x1="258.3" x2="258.3" y1="80" y2="466"/><text x="258.3" y="481.0" text-anchor="middle">-25%</text><line class="g" x1="373.7" x2="373.7" y1="80" y2="466"/><text x="373.7" y="481.0" text-anchor="middle">0%</text><line class="g" x1="489.0" x2="489.0" y1="80" y2="466"/><text x="489.0" y="481.0" text-anchor="middle">25%</text><line class="g" x1="604.4" x2="604.4" y1="80" y2="466"/><text x="604.4" y="481.0" text-anchor="middle">50%</text><line class="ax" x1="150" x2="690" y1="466" y2="466"/><text x="420.0" y="497.0" text-anchor="middle">14-day return R</text><line class="ax" x1="373.7" x2="373.7" y1="80" y2="466"/><text x="142.0" y="96.0" text-anchor="end">drop 2021-05-09</text><line class="g" stroke-width="3" x1="178.9" x2="239.0" y1="92" y2="92"/><circle class="f2 ring" cx="178.9" cy="92" r="4.5"/><circle class="f1 ring" cx="239.0" cy="92" r="4.5"/><text x="142.0" y="115.0" text-anchor="end">drop 2022-06-04</text><line class="g" stroke-width="3" x1="205.9" x2="314.1" y1="111" y2="111"/><circle class="f2 ring" cx="205.9" cy="111" r="4.5"/><circle class="f1 ring" cx="314.1" cy="111" r="4.5"/><text x="142.0" y="134.0" text-anchor="end">drop 2022-04-28</text><line class="g" stroke-width="3" x1="247.5" x2="250.0" y1="130" y2="130"/><circle class="f2 ring" cx="247.5" cy="130" r="4.5"/><circle class="f1 ring" cx="250.0" cy="130" r="4.5"/><text x="142.0" y="153.0" text-anchor="end">drop 2026-01-28</text><line class="g" stroke-width="3" x1="254.4" x2="288.8" y1="149" y2="149"/><circle class="f2 ring" cx="254.4" cy="149" r="4.5"/><circle class="f1 ring" cx="288.8" cy="149" r="4.5"/><text x="142.0" y="172.0" text-anchor="end">drop 2022-11-07</text><line class="g" stroke-width="3" x1="272.1" x2="287.6" y1="168" y2="168"/><circle class="f2 ring" cx="272.1" cy="168" r="4.5"/><circle class="f1 ring" cx="287.6" cy="168" r="4.5"/><text x="142.0" y="191.0" text-anchor="end">drop 2021-01-09</text><line class="g" stroke-width="3" x1="279.7" x2="506.1" y1="187" y2="187"/><circle class="f2 ring" cx="279.7" cy="187" r="4.5"/><circle class="f1 ring" cx="506.1" cy="187" r="4.5"/><text x="142.0" y="210.0" text-anchor="end">drop 2026-05-22</text><line class="g" stroke-width="3" x1="264.0" x2="274.3" y1="206" y2="206"/><circle class="f2 ring" cx="274.3" cy="206" r="4.5"/><circle class="f1 ring" cx="264.0" cy="206" r="4.5"/><text x="142.0" y="229.0" text-anchor="end">drop 2021-12-01</text><line class="g" stroke-width="3" x1="280.2" x2="355.7" y1="225" y2="225"/><circle class="f2 ring" cx="280.2" cy="225" r="4.5"/><circle class="f1 ring" cx="355.7" cy="225" r="4.5"/><text x="142.0" y="248.0" text-anchor="end">drop 2021-12-27</text><line class="g" stroke-width="3" x1="279.3" x2="332.7" y1="244" y2="244"/><circle class="f2 ring" cx="279.3" cy="244" r="4.5"/><circle class="f1 ring" cx="332.7" cy="244" r="4.5"/><text x="142.0" y="267.0" text-anchor="end">drop 2022-02-10</text><line class="g" stroke-width="3" x1="277.1" x2="301.1" y1="263" y2="263"/><circle class="f2 ring" cx="277.1" cy="263" r="4.5"/><circle class="f1 ring" cx="301.1" cy="263" r="4.5"/><text x="142.0" y="286.0" text-anchor="end">rebound 2021-01-28</text><line class="g" stroke-width="3" x1="588.7" x2="661.1" y1="282" y2="282"/><circle class="f2 ring" cx="588.7" cy="282" r="4.5"/><circle class="f1 ring" cx="661.1" cy="282" r="4.5"/><text x="142.0" y="305.0" text-anchor="end">rebound 2023-03-10</text><line class="g" stroke-width="3" x1="465.9" x2="553.2" y1="301" y2="301"/><circle class="f2 ring" cx="553.2" cy="301" r="4.5"/><circle class="f1 ring" cx="465.9" cy="301" r="4.5"/><text x="142.0" y="324.0" text-anchor="end">rebound 2021-02-28</text><line class="g" stroke-width="3" x1="430.3" x2="543.2" y1="320" y2="320"/><circle class="f2 ring" cx="543.2" cy="320" r="4.5"/><circle class="f1 ring" cx="430.3" cy="320" r="4.5"/><text x="142.0" y="343.0" text-anchor="end">rebound 2023-01-07</text><line class="g" stroke-width="3" x1="526.5" x2="538.7" y1="339" y2="339"/><circle class="f2 ring" cx="538.7" cy="339" r="4.5"/><circle class="f1 ring" cx="526.5" cy="339" r="4.5"/><text x="142.0" y="362.0" text-anchor="end">rebound 2021-07-18</text><line class="g" stroke-width="3" x1="439.5" x2="517.1" y1="358" y2="358"/><circle class="f2 ring" cx="517.1" cy="358" r="4.5"/><circle class="f1 ring" cx="439.5" cy="358" r="4.5"/><text x="142.0" y="381.0" text-anchor="end">rebound 2022-01-24</text><line class="g" stroke-width="3" x1="436.1" x2="499.2" y1="377" y2="377"/><circle class="f2 ring" cx="499.2" cy="377" r="4.5"/><circle class="f1 ring" cx="436.1" cy="377" r="4.5"/><text x="142.0" y="400.0" text-anchor="end">rebound 2022-03-14</text><line class="g" stroke-width="3" x1="462.8" x2="475.1" y1="396" y2="396"/><circle class="f2 ring" cx="475.1" cy="396" r="4.5"/><circle class="f1 ring" cx="462.8" cy="396" r="4.5"/><text x="142.0" y="419.0" text-anchor="end">rebound 2025-04-09</text><line class="g" stroke-width="3" x1="419.6" x2="461.1" y1="415" y2="415"/><circle class="f2 ring" cx="461.1" cy="415" r="4.5"/><circle class="f1 ring" cx="419.6" cy="415" r="4.5"/><text x="142.0" y="438.0" text-anchor="end">rebound 2024-07-08</text><line class="g" stroke-width="3" x1="418.2" x2="466.1" y1="434" y2="434"/><circle class="f2 ring" cx="466.1" cy="434" r="4.5"/><circle class="f1 ring" cx="418.2" cy="434" r="4.5"/><text x="142.0" y="457.0" text-anchor="end">rebound 2022-07-06</text><line class="g" stroke-width="3" x1="368.5" x2="461.0" y1="453" y2="453"/><circle class="f2 ring" cx="461.0" cy="453" r="4.5"/><circle class="f1 ring" cx="368.5" cy="453" r="4.5"/></svg>
