<svg xmlns="http://www.w3.org/2000/svg" width="760" height="734" viewBox="0 0 760 734" role="img"><style>
svg{--surface:#fcfcfb;--ink:#0b0b0b;--ink2:#52514e;--grid:#e4e3df;--axis:#a3a29d;--s1:#2a78d6;--s2:#eb6834;--s3:#1baf7a;--none:#d6d5d0}
@media (prefers-color-scheme: dark){svg{--surface:#1a1a19;--ink:#ffffff;--ink2:#c3c2b7;--grid:#33332f;--axis:#6b6a65;--s1:#3987e5;--s2:#d95926;--s3:#199e70;--none:#4a4945}}
text{font-family:system-ui,-apple-system,"Segoe UI",Roboto,sans-serif;font-size:11px;fill:var(--ink2)}
.t{fill:var(--ink);font-size:14px;font-weight:600}.st{font-size:11.5px}.v{fill:var(--ink)}
.g{stroke:var(--grid);stroke-width:1}.ax{stroke:var(--axis);stroke-width:1}
.l1,.l2,.l3{fill:none;stroke-width:2;stroke-linejoin:round;stroke-linecap:round}
.l1{stroke:var(--s1)}.l2{stroke:var(--s2)}.l3{stroke:var(--s3)}
.f1{fill:var(--s1)}.f2{fill:var(--s2)}.f3{fill:var(--s3)}.f0{fill:var(--none)}
.ring{stroke:var(--surface);stroke-width:2}.bg{fill:var(--surface)}
</style><rect class="bg" width="760" height="734" rx="6"/><text x="16.0" y="24.0" class="t" text-anchor="start">pol_switch_vt_tl_e20v45: the 25 most live-like windows</text><text x="16.0" y="42.0" class="st" text-anchor="start">Return since the window start (each panel has its own scale), 14 days from cash</text><rect x="16.0" y="54.0" width="14" height="4" rx="2" class="f1"/><text x="35.0" y="59.0" text-anchor="start">pol_switch_vt_tl_e20v45</text><rect x="191.5" y="54.0" width="14" height="4" rx="2" class="f2"/><text x="210.5" y="59.0" text-anchor="start">BTC_HOLD</text><rect x="269.5" y="54.0" width="14" height="4" rx="2" class="f3"/><text x="288.5" y="59.0" text-anchor="start">field median (6 benchmarks)</text><text x="48.0" y="86.0" class="v" text-anchor="start">2026-07-17  w=2.57‰</text><line class="g" x1="48" x2="156" y1="150.0" y2="150.0"/><text x="42.0" y="153.5" text-anchor="end">0%</text><line class="g" x1="48" x2="156" y1="118.5" y2="118.5"/><text x="42.0" y="122.0" text-anchor="end">5%</text><line class="ax" x1="48" x2="156" y1="180" y2="180"/><polyline style="stroke-width:1.5" class="l2" points="48.0,150.0 49.3,145.0 50.6,147.3 51.9,146.4 53.1,146.6 54.4,145.9 55.7,145.4 57.0,141.1 58.3,138.3 59.6,139.6 60.9,139.6 62.1,142.0 63.4,140.8 64.7,142.0 66.0,139.4 67.3,138.0 68.6,143.8 69.9,136.7 71.1,130.8 72.4,135.3 73.7,134.2 75.0,131.1 76.3,125.0 77.6,123.4 78.9,120.1 80.1,122.4 81.4,121.3 82.7,124.8 84.0,128.4 85.3,126.7 86.6,126.4 87.9,127.6 89.1,125.7 90.4,130.2 91.7,132.4 93.0,131.2 94.3,137.1 95.6,138.2 96.9,135.7 98.1,132.2 99.4,131.8 100.7,135.9 102.0,145.7 103.3,144.4 104.6,145.2 105.9,145.7 107.1,146.6 108.4,146.0 109.7,144.8 111.0,142.8 112.3,142.9 113.6,141.1 114.9,142.9 116.1,141.6 117.4,139.0 118.7,139.7 120.0,132.7 121.3,133.9 122.6,134.5 123.9,135.7 125.1,141.1 126.4,136.9 127.7,149.0 129.0,153.1 130.3,151.5 131.6,152.0 132.9,147.3 134.1,147.6 135.4,147.5 136.7,149.1 138.0,141.1 139.3,141.6 140.6,147.0 141.9,150.7 143.1,146.8 144.4,145.0 145.7,146.4 147.0,138.8 148.3,139.4 149.6,138.7 150.9,138.9 152.1,143.0 153.4,147.1 154.7,148.5 156.0,159.3"/><polyline style="stroke-width:1.5" class="l3" points="48.0,150.0 49.3,150.7 50.6,149.3 51.9,149.1 53.1,152.1 54.4,152.3 55.7,151.6 57.0,149.3 58.3,148.1 59.6,148.6 60.9,147.4 62.1,148.3 63.4,148.4 64.7,149.5 66.0,148.2 67.3,149.0 68.6,151.6 69.9,146.5 71.1,142.4 72.4,143.3 73.7,142.4 75.0,139.0 76.3,136.8 77.6,138.2 78.9,137.8 80.1,139.8 81.4,139.0 82.7,140.9 84.0,144.0 85.3,141.8 86.6,139.1 87.9,143.2 89.1,141.4 90.4,144.3 91.7,145.3 93.0,143.6 94.3,150.5 95.6,153.5 96.9,153.6 98.1,151.9 99.4,149.6 100.7,154.3 102.0,159.9 103.3,159.0 104.6,160.5 105.9,162.6 107.1,165.3 108.4,165.1 109.7,161.9 111.0,159.2 112.3,160.3 113.6,157.7 114.9,158.7 116.1,158.0 117.4,151.7 118.7,152.8 120.0,142.4 121.3,144.3 122.6,142.3 123.9,143.1 125.1,153.3 126.4,149.9 127.7,165.3 129.0,167.7 130.3,167.6 131.6,168.7 132.9,159.1 134.1,162.3 135.4,163.0 136.7,171.0 138.0,167.5 139.3,165.0 140.6,169.7 141.9,173.9 143.1,169.8 144.4,168.2 145.7,169.6 147.0,160.7 148.3,155.1 149.6,150.1 150.9,150.4 152.1,151.9 153.4,155.6 154.7,159.1 156.0,163.0"/><polyline style="stroke-width:1.5" class="l1" points="48.0,150.0 49.3,153.6 50.6,152.5 51.9,155.3 53.1,159.1 54.4,158.1 55.7,154.0 57.0,154.0 58.3,150.4 59.6,152.1 60.9,151.5 62.1,152.9 63.4,151.0 64.7,145.5 66.0,131.5 67.3,134.5 68.6,137.3 69.9,132.7 71.1,124.5 72.4,120.3 73.7,122.1 75.0,116.6 76.3,112.3 77.6,118.3 78.9,120.3 80.1,121.3 81.4,120.4 82.7,121.8 84.0,128.1 85.3,119.0 86.6,115.7 87.9,121.1 89.1,119.8 90.4,121.8 91.7,124.4 93.0,119.9 94.3,126.9 95.6,130.5 96.9,133.9 98.1,133.2 99.4,128.5 100.7,135.6 102.0,137.4 103.3,137.9 104.6,141.7 105.9,147.5 107.1,149.6 108.4,151.2 109.7,148.1 111.0,145.9 112.3,147.7 113.6,142.0 114.9,142.0 116.1,136.5 117.4,122.6 118.7,124.1 120.0,106.9 121.3,110.9 122.6,104.1 123.9,103.2 125.1,113.4 126.4,108.5 127.7,121.8 129.0,125.4 130.3,125.3 131.6,127.5 132.9,110.2 134.1,113.8 135.4,114.7 136.7,127.9 138.0,122.3 139.3,112.4 140.6,121.2 141.9,125.1 143.1,120.5 144.4,118.9 145.7,119.7 147.0,108.6 148.3,104.4 149.6,98.1 150.9,98.9 152.1,101.0 153.4,102.7 154.7,105.3 156.0,107.7"/><text x="196.0" y="86.0" class="v" text-anchor="start">2023-08-30  w=2.55‰</text><line class="g" x1="196" x2="304" y1="138.7" y2="138.7"/><text x="190.0" y="142.2" text-anchor="end">0%</text><line class="g" x1="196" x2="304" y1="94.3" y2="94.3"/><text x="190.0" y="97.8" text-anchor="end">10%</text><line class="ax" x1="196" x2="304" y1="180" y2="180"/><polyline style="stroke-width:1.5" class="l2" points="196.0,138.7 197.3,138.8 198.6,136.8 199.9,138.1 201.1,137.4 202.4,136.7 203.7,142.9 205.0,155.3 206.3,158.9 207.6,156.6 208.9,158.1 210.1,157.2 211.4,161.0 212.7,163.7 214.0,161.1 215.3,161.3 216.6,161.3 217.9,161.0 219.1,159.7 220.4,160.7 221.7,160.1 223.0,160.2 224.3,158.7 225.6,158.9 226.9,160.0 228.1,157.8 229.4,158.4 230.7,158.2 232.0,158.5 233.3,159.7 234.6,161.0 235.9,159.7 237.1,160.8 238.4,163.0 239.7,162.3 241.0,161.5 242.3,161.9 243.6,163.1 244.9,161.4 246.1,161.5 247.4,162.4 248.7,162.3 250.0,164.7 251.3,163.0 252.6,161.9 253.9,160.6 255.1,161.8 256.4,162.7 257.7,161.6 259.0,159.9 260.3,153.8 261.6,153.8 262.9,153.8 264.1,160.6 265.4,160.5 266.7,159.7 268.0,159.4 269.3,160.0 270.6,159.8 271.9,160.2 273.1,159.7 274.4,160.1 275.7,159.6 277.0,160.2 278.3,160.4 279.6,161.3 280.9,161.6 282.1,161.2 283.4,160.5 284.7,162.2 286.0,161.0 287.3,164.5 288.6,172.4 289.9,173.9 291.1,171.6 292.4,161.2 293.7,160.8 295.0,156.3 296.3,154.6 297.6,156.9 298.9,160.6 300.1,159.9 301.4,159.9 302.7,154.7 304.0,154.0"/><polyline style="stroke-width:1.5" class="l3" points="196.0,138.7 197.3,138.8 198.6,137.0 199.9,138.3 201.1,137.1 202.4,136.2 203.7,142.5 205.0,151.4 206.3,151.8 207.6,150.5 208.9,152.5 210.1,151.8 211.4,155.9 212.7,158.4 214.0,156.3 215.3,154.5 216.6,155.1 217.9,152.2 219.1,151.5 220.4,152.6 221.7,149.8 223.0,149.8 224.3,148.3 225.6,148.5 226.9,149.2 228.1,149.2 229.4,149.7 230.7,148.9 232.0,149.3 233.3,150.6 234.6,148.1 235.9,147.7 237.1,147.6 238.4,148.8 239.7,147.1 241.0,146.4 242.3,146.4 243.6,147.4 244.9,146.0 246.1,146.1 247.4,146.4 248.7,145.4 250.0,148.6 251.3,145.4 252.6,142.8 253.9,142.1 255.1,144.8 256.4,147.8 257.7,146.0 259.0,144.3 260.3,141.7 261.6,142.4 262.9,141.9 264.1,148.3 265.4,148.3 266.7,148.3 268.0,147.5 269.3,148.3 270.6,148.7 271.9,149.8 273.1,149.8 274.4,149.8 275.7,150.3 277.0,152.3 278.3,155.5 279.6,156.8 280.9,158.7 282.1,158.7 283.4,158.0 284.7,158.6 286.0,158.6 287.3,163.9 288.6,168.9 289.9,171.4 291.1,168.8 292.4,160.0 293.7,160.0 295.0,155.3 296.3,152.6 297.6,155.2 298.9,158.6 300.1,158.5 301.4,158.4 302.7,154.3 304.0,153.1"/><polyline style="stroke-width:1.5" class="l1" points="196.0,138.7 197.3,139.4 198.6,140.6 199.9,139.3 201.1,140.9 202.4,141.9 203.7,135.8 205.0,129.9 206.3,129.1 207.6,130.9 208.9,129.5 210.1,130.1 211.4,126.4 212.7,123.3 214.0,125.1 215.3,126.5 216.6,126.3 217.9,126.1 219.1,127.1 220.4,125.5 221.7,126.5 223.0,127.0 224.3,126.8 225.6,126.5 226.9,125.0 228.1,126.1 229.4,126.3 230.7,128.2 232.0,127.7 233.3,126.2 234.6,124.9 235.9,126.1 237.1,125.7 238.4,123.4 239.7,124.8 241.0,126.5 242.3,128.0 243.6,126.9 244.9,128.2 246.1,128.3 247.4,126.3 248.7,126.9 250.0,124.7 251.3,126.4 252.6,127.7 253.9,129.3 255.1,127.3 256.4,125.3 257.7,126.9 259.0,127.9 260.3,130.4 261.6,130.5 262.9,129.9 264.1,125.7 265.4,125.7 266.7,125.8 268.0,126.2 269.3,126.1 270.6,125.7 271.9,126.5 273.1,126.2 274.4,125.0 275.7,124.2 277.0,122.8 278.3,117.8 279.6,116.5 280.9,115.4 282.1,114.5 283.4,114.8 284.7,113.4 286.0,111.8 287.3,106.7 288.6,107.0 289.9,103.8 291.1,105.9 292.4,109.3 293.7,107.5 295.0,108.9 296.3,98.1 297.6,100.1 298.9,101.9 300.1,102.0 301.4,103.5 302.7,106.5 304.0,106.1"/><text x="344.0" y="86.0" class="v" text-anchor="start">2026-07-16  w=2.53‰</text><line class="g" x1="344" x2="452" y1="172.7" y2="172.7"/><text x="338.0" y="176.2" text-anchor="end">-5%</text><line class="g" x1="344" x2="452" y1="136.4" y2="136.4"/><text x="338.0" y="139.9" text-anchor="end">0%</text><line class="g" x1="344" x2="452" y1="100.2" y2="100.2"/><text x="338.0" y="103.7" text-anchor="end">5%</text><line class="ax" x1="344" x2="452" y1="180" y2="180"/><polyline style="stroke-width:1.5" class="l2" points="344.0,136.4 345.3,139.5 346.6,144.5 347.9,147.4 349.1,155.7 350.4,150.5 351.7,148.7 353.0,140.8 354.3,143.4 355.6,142.4 356.9,142.6 358.1,141.8 359.4,141.2 360.7,136.4 362.0,133.2 363.3,134.7 364.6,134.6 365.9,137.4 367.1,136.0 368.4,137.4 369.7,134.5 371.0,132.8 372.3,139.5 373.6,131.4 374.9,124.7 376.1,129.8 377.4,128.5 378.7,125.0 380.0,118.1 381.3,116.3 382.6,112.6 383.9,115.2 385.1,114.0 386.4,117.8 387.7,122.0 389.0,120.1 390.3,119.7 391.6,121.1 392.9,118.9 394.1,124.0 395.4,126.5 396.7,125.2 398.0,131.9 399.3,133.1 400.6,130.3 401.9,126.3 403.1,125.8 404.4,130.5 405.7,141.6 407.0,140.1 408.3,141.0 409.6,141.6 410.9,142.6 412.1,141.9 413.4,140.6 414.7,138.3 416.0,138.4 417.3,136.4 418.6,138.5 419.9,136.9 421.1,134.0 422.4,134.8 423.7,126.9 425.0,128.2 426.3,128.9 427.6,130.3 428.9,136.4 430.1,131.6 431.4,145.3 432.7,150.0 434.0,148.2 435.3,148.8 436.6,143.4 437.9,143.7 439.1,143.6 440.4,145.4 441.7,136.4 443.0,137.0 444.3,143.0 445.6,147.2 446.9,142.8 448.1,140.8 449.4,142.3 450.7,133.8 452.0,134.5"/><polyline style="stroke-width:1.5" class="l3" points="344.0,136.4 345.3,140.4 346.6,147.9 347.9,148.3 349.1,154.9 350.4,150.0 351.7,149.4 353.0,147.2 354.3,146.5 355.6,146.4 356.9,149.1 358.1,150.4 359.4,148.4 360.7,146.5 362.0,145.6 363.3,146.2 364.6,144.7 365.9,145.8 367.1,146.0 368.4,147.3 369.7,145.8 371.0,146.7 372.3,149.7 373.6,143.9 374.9,139.3 376.1,140.2 377.4,139.5 378.7,135.0 380.0,131.5 381.3,132.3 382.6,132.1 383.9,133.8 385.1,134.1 386.4,136.6 387.7,140.5 389.0,136.9 390.3,133.4 391.6,138.0 392.9,135.9 394.1,139.3 395.4,140.3 396.7,138.4 398.0,146.3 399.3,149.6 400.6,150.4 401.9,148.5 403.1,145.4 404.4,151.9 405.7,157.1 407.0,156.8 408.3,159.8 409.6,162.4 410.9,165.4 412.1,165.3 413.4,161.6 414.7,158.5 416.0,159.7 417.3,156.7 418.6,156.7 419.9,156.3 421.1,149.7 422.4,151.3 423.7,138.5 425.0,141.6 426.3,139.4 427.6,141.1 428.9,151.9 430.1,149.0 431.4,165.5 432.7,168.0 434.0,167.8 435.3,168.6 436.6,159.6 437.9,161.8 439.1,162.5 440.4,171.1 441.7,167.6 443.0,164.8 444.3,168.8 445.6,173.9 446.9,170.5 448.1,168.7 449.4,170.3 450.7,161.0 452.0,154.7"/><polyline style="stroke-width:1.5" class="l1" points="344.0,136.4 345.3,143.0 346.6,158.0 347.9,155.0 349.1,162.5 350.4,155.2 351.7,154.4 353.0,154.9 354.3,153.7 355.6,156.8 356.9,161.0 358.1,159.9 359.4,155.3 360.7,155.3 362.0,151.2 363.3,153.2 364.6,152.4 365.9,154.0 367.1,151.9 368.4,145.7 369.7,130.0 371.0,133.3 372.3,136.5 373.6,131.3 374.9,122.1 376.1,117.3 377.4,119.3 378.7,113.2 380.0,108.3 381.3,115.0 382.6,117.3 383.9,118.4 385.1,117.4 386.4,119.0 387.7,126.2 389.0,115.9 390.3,112.1 391.6,118.2 392.9,116.8 394.1,119.1 395.4,121.9 396.7,116.9 398.0,124.8 399.3,128.8 400.6,132.7 401.9,131.8 403.1,126.6 404.4,134.5 405.7,136.6 407.0,137.2 408.3,141.4 409.6,148.0 410.9,150.3 412.1,152.2 413.4,148.6 414.7,146.2 416.0,148.2 417.3,141.8 418.6,141.8 419.9,135.6 421.1,119.9 422.4,121.6 423.7,102.3 425.0,106.7 426.3,99.1 427.6,98.1 428.9,109.6 430.1,104.1 431.4,119.0 432.7,123.1 434.0,123.0 435.3,125.4 436.6,106.0 437.9,110.0 439.1,111.0 440.4,125.9 441.7,119.6 443.0,108.4 444.3,118.3 445.6,122.7 446.9,117.5 448.1,115.8 449.4,116.6 450.7,104.1 452.0,99.5"/><text x="492.0" y="86.0" class="v" text-anchor="start">2024-05-24  w=2.47‰</text><line class="g" x1="492" x2="600" y1="159.8" y2="159.8"/><text x="486.0" y="163.3" text-anchor="end">0%</text><line class="g" x1="492" x2="600" y1="129.8" y2="129.8"/><text x="486.0" y="133.3" text-anchor="end">5%</text><line class="g" x1="492" x2="600" y1="99.8" y2="99.8"/><text x="486.0" y="103.3" text-anchor="end">10%</text><line class="ax" x1="492" x2="600" y1="180" y2="180"/><polyline style="stroke-width:1.5" class="l2" points="492.0,159.8 493.3,154.1 494.6,159.1 495.9,157.3 497.1,157.3 498.4,154.2 499.7,155.7 501.0,153.8 502.3,152.6 503.6,154.5 504.9,152.2 506.1,154.0 507.4,156.5 508.7,156.0 510.0,159.4 511.3,156.2 512.6,158.3 513.9,160.1 515.1,143.1 516.4,152.9 517.7,151.3 519.0,163.5 520.3,166.6 521.6,160.5 522.9,160.7 524.1,160.2 525.4,160.4 526.7,156.7 528.0,164.4 529.3,166.0 530.6,169.3 531.9,170.3 533.1,166.9 534.4,162.9 535.7,167.5 537.0,165.5 538.3,159.3 539.6,158.2 540.9,160.8 542.1,159.2 543.4,162.4 544.7,160.8 546.0,170.8 547.3,166.7 548.6,167.9 549.9,166.4 551.1,167.1 552.4,166.9 553.7,166.6 555.0,166.1 556.3,165.9 557.6,165.7 558.9,166.3 560.1,161.7 561.4,162.7 562.7,166.2 564.0,166.0 565.3,160.5 566.6,156.0 567.9,154.4 569.1,149.8 570.4,153.4 571.7,156.8 573.0,153.7 574.3,155.0 575.6,155.5 576.9,142.5 578.1,142.7 579.4,141.7 580.7,138.1 582.0,135.9 583.3,137.9 584.6,132.6 585.9,135.2 587.1,136.7 588.4,137.2 589.7,137.5 591.0,136.2 592.3,135.0 593.6,142.2 594.9,139.4 596.1,137.8 597.4,136.7 598.7,131.5 600.0,136.7"/><polyline style="stroke-width:1.5" class="l3" points="492.0,159.8 493.3,154.0 494.6,156.3 495.9,152.4 497.1,151.1 498.4,150.7 499.7,152.1 501.0,151.0 502.3,151.2 503.6,151.4 504.9,149.7 506.1,147.6 507.4,151.2 508.7,148.5 510.0,152.2 511.3,143.8 512.6,141.6 513.9,142.3 515.1,135.6 516.4,144.1 517.7,141.8 519.0,146.5 520.3,146.9 521.6,139.8 522.9,142.6 524.1,143.0 525.4,144.3 526.7,143.4 528.0,148.2 529.3,153.1 530.6,157.1 531.9,158.8 533.1,158.1 534.4,154.1 535.7,167.3 537.0,165.0 538.3,160.7 539.6,159.7 540.9,161.4 542.1,160.1 543.4,161.3 544.7,159.9 546.0,167.3 547.3,160.8 548.6,160.9 549.9,160.5 551.1,160.2 552.4,161.1 553.7,159.2 555.0,162.1 556.3,163.0 557.6,163.2 558.9,164.4 560.1,161.4 561.4,161.8 562.7,167.5 564.0,166.6 565.3,162.8 566.6,156.1 567.9,155.0 569.1,154.0 570.4,156.2 571.7,160.9 573.0,158.1 574.3,161.7 575.6,161.5 576.9,155.7 578.1,154.6 579.4,151.8 580.7,143.3 582.0,141.1 583.3,144.6 584.6,143.5 585.9,145.1 587.1,145.1 588.4,145.4 589.7,144.9 591.0,141.5 592.3,144.5 593.6,153.8 594.9,149.8 596.1,150.1 597.4,148.1 598.7,143.3 600.0,147.6"/><polyline style="stroke-width:1.5" class="l1" points="492.0,159.8 493.3,155.5 494.6,159.4 495.9,155.1 497.1,142.6 498.4,143.4 499.7,148.1 501.0,147.6 502.3,148.7 503.6,147.4 504.9,144.1 506.1,135.3 507.4,145.5 508.7,137.9 510.0,145.3 511.3,130.5 512.6,116.6 513.9,115.0 515.1,98.9 516.4,110.8 517.7,101.9 519.0,116.8 520.3,115.9 521.6,98.1 522.9,110.1 524.1,108.1 525.4,109.6 526.7,106.3 528.0,118.2 529.3,127.6 530.6,134.6 531.9,137.6 533.1,138.4 534.4,129.1 535.7,167.7 537.0,164.4 538.3,150.5 539.6,148.8 540.9,157.7 542.1,154.7 543.4,153.5 544.7,147.6 546.0,156.5 547.3,146.0 548.6,145.6 549.9,146.7 551.1,144.9 552.4,146.4 553.7,141.9 555.0,147.0 556.3,153.4 557.6,153.8 558.9,161.5 560.1,155.1 561.4,158.5 562.7,173.9 564.0,169.2 565.3,166.4 566.6,139.2 567.9,140.5 569.1,140.9 570.4,148.0 571.7,159.7 573.0,153.2 574.3,159.3 575.6,159.6 576.9,149.3 578.1,147.5 579.4,140.3 580.7,119.5 582.0,117.0 583.3,124.1 584.6,126.6 585.9,126.6 587.1,127.0 588.4,122.5 589.7,124.0 591.0,117.5 592.3,122.4 593.6,132.2 594.9,124.0 596.1,125.3 597.4,124.6 598.7,121.2 600.0,128.3"/><text x="640.0" y="86.0" class="v" text-anchor="start">2023-09-01  w=2.38‰</text><line class="g" x1="640" x2="748" y1="147.5" y2="147.5"/><text x="634.0" y="151.0" text-anchor="end">0%</text><line class="g" x1="640" x2="748" y1="105.4" y2="105.4"/><text x="634.0" y="108.9" text-anchor="end">5%</text><line class="ax" x1="640" x2="748" y1="180" y2="180"/><polyline style="stroke-width:1.5" class="l2" points="640.0,147.5 641.3,153.0 642.6,147.8 643.9,148.1 645.1,148.1 646.4,147.6 647.7,144.9 649.0,146.9 650.3,145.7 651.6,145.9 652.9,142.9 654.1,143.3 655.4,145.6 656.7,141.1 658.0,142.4 659.3,141.9 660.6,142.6 661.9,145.0 663.1,147.5 664.4,145.0 665.7,147.1 667.0,151.5 668.3,150.1 669.6,148.5 670.9,149.3 672.1,151.8 673.4,148.3 674.7,148.6 676.0,150.3 677.3,150.2 678.6,154.9 679.9,151.6 681.1,149.3 682.4,146.8 683.7,149.2 685.0,151.0 686.3,148.7 687.6,145.4 688.9,133.2 690.1,133.2 691.4,133.1 692.7,146.7 694.0,146.5 695.3,144.9 696.6,144.4 697.9,145.5 699.1,145.2 700.4,145.9 701.7,144.9 703.0,145.7 704.3,144.7 705.6,146.0 706.9,146.3 708.1,148.1 709.4,148.8 710.7,148.0 712.0,146.6 713.3,149.9 714.6,147.5 715.9,154.4 717.1,170.2 718.4,173.4 719.7,168.7 721.0,148.0 722.3,147.2 723.6,138.2 724.9,134.7 726.1,139.3 727.4,146.7 728.7,145.4 730.0,145.4 731.3,135.0 732.6,133.6 733.9,136.9 735.1,134.2 736.4,132.8 737.7,130.2 739.0,126.9 740.3,118.9 741.6,119.4 742.9,124.4 744.1,121.4 745.4,123.0 746.7,127.6 748.0,131.0"/><polyline style="stroke-width:1.5" class="l3" points="640.0,147.5 641.3,149.8 642.6,147.0 643.9,145.8 645.1,146.1 646.4,145.7 647.7,143.6 649.0,146.1 650.3,143.5 651.6,142.8 652.9,140.8 654.1,141.4 655.4,145.0 656.7,141.9 658.0,142.6 659.3,139.0 660.6,140.4 661.9,143.7 663.1,145.3 664.4,142.4 665.7,143.9 667.0,148.0 668.3,144.6 669.6,141.1 670.9,139.4 672.1,140.6 673.4,138.5 674.7,135.8 676.0,139.9 677.3,139.1 678.6,139.7 679.9,134.7 681.1,130.5 682.4,126.6 683.7,133.0 685.0,137.8 686.3,134.7 687.6,131.4 688.9,125.1 690.1,127.9 691.4,129.3 692.7,138.3 694.0,137.9 695.3,136.6 696.6,135.3 697.9,136.3 699.1,136.8 700.4,137.6 701.7,137.7 703.0,138.1 704.3,139.2 705.6,142.2 706.9,145.5 708.1,147.7 709.4,148.8 710.7,148.8 712.0,148.1 713.3,149.4 714.6,149.0 715.9,159.0 717.1,169.0 718.4,173.9 719.7,168.9 721.0,152.1 722.3,152.6 723.6,146.6 724.9,143.0 726.1,146.3 727.4,149.8 728.7,150.3 730.0,150.2 731.3,146.3 732.6,144.8 733.9,146.2 735.1,145.3 736.4,146.9 737.7,145.9 739.0,142.3 740.3,139.3 741.6,137.5 742.9,139.2 744.1,136.2 745.4,138.9 746.7,140.6 748.0,136.7"/><polyline style="stroke-width:1.5" class="l1" points="640.0,147.5 641.3,144.4 642.6,147.7 643.9,150.3 645.1,150.1 646.4,149.6 647.7,151.4 649.0,148.5 650.3,150.4 651.6,151.3 652.9,150.8 654.1,150.3 655.4,147.5 656.7,149.6 658.0,150.0 659.3,153.5 660.6,152.6 661.9,149.8 663.1,147.5 664.4,149.7 665.7,148.9 667.0,144.7 668.3,147.2 669.6,150.4 670.9,153.2 672.1,151.1 673.4,153.5 674.7,153.7 676.0,149.9 677.3,151.1 678.6,147.0 679.9,150.2 681.1,152.6 682.4,155.5 683.7,151.9 685.0,148.1 686.3,151.1 687.6,152.9 688.9,157.5 690.1,157.7 691.4,156.6 692.7,148.9 694.0,148.9 695.3,149.1 696.6,149.8 697.9,149.6 699.1,148.9 700.4,150.4 701.7,149.7 703.0,147.6 704.3,146.1 705.6,143.6 706.9,134.4 708.1,132.0 709.4,129.9 710.7,128.3 712.0,128.8 713.3,126.2 714.6,123.3 715.9,113.9 717.1,114.4 718.4,108.6 719.7,112.5 721.0,118.8 722.3,115.5 723.6,118.0 724.9,98.1 726.1,101.8 727.4,105.1 728.7,105.4 730.0,108.0 731.3,113.5 732.6,112.8 733.9,110.9 735.1,113.8 736.4,125.2 737.7,121.9 739.0,115.0 740.3,115.2 741.6,112.7 742.9,110.5 744.1,111.8 745.4,107.8 746.7,107.0 748.0,105.5"/><text x="48.0" y="216.0" class="v" text-anchor="start">2026-07-06  w=2.38‰</text><line class="g" x1="48" x2="156" y1="309.8" y2="309.8"/><text x="42.0" y="313.3" text-anchor="end">-5%</text><line class="g" x1="48" x2="156" y1="266.3" y2="266.3"/><text x="42.0" y="269.8" text-anchor="end">0%</text><line class="g" x1="48" x2="156" y1="222.8" y2="222.8"/><text x="42.0" y="226.3" text-anchor="end">5%</text><line class="ax" x1="48" x2="156" y1="310" y2="310"/><polyline style="stroke-width:1.5" class="l2" points="48.0,266.3 49.3,267.1 50.6,262.9 51.9,274.5 53.1,276.0 54.4,271.6 55.7,264.5 57.0,266.0 58.3,272.2 59.6,280.4 60.9,278.7 62.1,286.7 63.4,294.8 64.7,287.0 66.0,286.8 67.3,291.1 68.6,277.2 69.9,280.1 71.1,279.0 72.4,273.8 73.7,274.0 75.0,264.3 76.3,264.0 77.6,257.8 78.9,263.0 80.1,264.7 81.4,261.3 82.7,261.5 84.0,261.3 85.3,260.9 86.6,261.2 87.9,259.7 89.1,266.0 90.4,260.5 91.7,265.1 93.0,263.3 94.3,261.2 95.6,260.4 96.9,266.6 98.1,279.8 99.4,277.4 100.7,278.5 102.0,282.4 103.3,286.9 104.6,286.3 105.9,283.0 107.1,283.2 108.4,279.3 109.7,253.5 111.0,255.8 112.3,249.4 113.6,252.8 114.9,256.1 116.1,253.6 117.4,244.2 118.7,250.3 120.0,253.3 121.3,255.2 122.6,260.4 123.9,260.1 125.1,254.0 126.4,259.9 127.7,265.9 129.0,269.5 130.3,279.6 131.6,273.2 132.9,271.1 134.1,261.4 135.4,264.6 136.7,263.4 138.0,263.6 139.3,262.7 140.6,261.9 141.9,256.1 143.1,252.3 144.4,254.0 145.7,253.9 147.0,257.3 148.3,255.7 149.6,257.3 150.9,253.8 152.1,251.8 153.4,259.8 154.7,250.0 156.0,241.9"/><polyline style="stroke-width:1.5" class="l3" points="48.0,266.3 49.3,267.4 50.6,267.8 51.9,275.9 53.1,276.6 54.4,274.6 55.7,271.9 57.0,275.9 58.3,280.2 59.6,287.1 60.9,287.0 62.1,294.6 63.4,300.9 64.7,293.7 66.0,294.0 67.3,297.6 68.6,288.1 69.9,288.9 71.1,289.5 72.4,287.7 73.7,287.6 75.0,282.9 76.3,281.4 77.6,278.7 78.9,279.7 80.1,279.3 81.4,281.1 82.7,283.0 84.0,281.9 85.3,279.0 86.6,274.5 87.9,268.2 89.1,279.9 90.4,276.8 91.7,279.2 93.0,277.6 94.3,272.2 95.6,270.1 96.9,276.5 98.1,283.5 99.4,282.8 100.7,285.6 102.0,287.1 103.3,289.8 104.6,290.7 105.9,288.5 107.1,286.7 108.4,284.9 109.7,261.9 111.0,263.8 112.3,258.7 113.6,262.1 114.9,267.4 116.1,259.6 117.4,251.0 118.7,260.9 120.0,258.9 121.3,257.2 122.6,261.5 123.9,267.5 125.1,263.3 126.4,271.7 127.7,284.4 129.0,283.6 130.3,289.7 131.6,283.7 132.9,284.1 134.1,280.4 135.4,278.4 136.7,278.4 138.0,285.1 139.3,288.8 140.6,285.4 141.9,284.0 143.1,282.9 144.4,283.8 145.7,281.8 147.0,283.0 148.3,284.1 149.6,285.5 150.9,285.2 152.1,284.5 153.4,290.1 154.7,279.1 156.0,274.6"/><polyline style="stroke-width:1.5" class="l1" points="48.0,266.3 49.3,265.4 50.6,263.6 51.9,256.6 53.1,257.5 54.4,256.6 55.7,260.6 57.0,267.7 58.3,279.5 59.6,288.2 60.9,287.5 62.1,294.2 63.4,303.9 64.7,296.3 66.0,296.3 67.3,299.0 68.6,288.0 69.9,290.1 71.1,294.5 72.4,291.5 73.7,289.8 75.0,278.8 76.3,281.2 77.6,269.2 78.9,272.3 80.1,269.5 81.4,273.1 82.7,275.3 84.0,274.0 85.3,265.7 86.6,256.6 87.9,247.9 89.1,268.8 90.4,262.9 91.7,268.1 93.0,262.9 94.3,253.6 95.6,250.0 96.9,260.7 98.1,274.6 99.4,273.4 100.7,277.5 102.0,280.3 103.3,283.5 104.6,284.0 105.9,277.9 107.1,277.9 108.4,271.7 109.7,243.2 111.0,246.1 112.3,238.7 113.6,243.5 114.9,251.9 116.1,240.0 117.4,228.1 118.7,239.4 120.0,239.3 121.3,236.5 122.6,244.0 123.9,251.9 125.1,254.0 126.4,264.0 127.7,282.2 129.0,278.5 130.3,287.6 131.6,278.8 132.9,277.7 134.1,278.3 135.4,276.9 136.7,280.7 138.0,285.8 139.3,284.5 140.6,278.8 141.9,278.9 143.1,273.9 144.4,276.3 145.7,275.4 147.0,277.3 148.3,274.7 149.6,267.2 150.9,248.1 152.1,252.2 153.4,256.0 154.7,249.7 156.0,238.5"/><text x="196.0" y="216.0" class="v" text-anchor="start">2025-05-24  w=2.38‰</text><line class="g" x1="196" x2="304" y1="305.4" y2="305.4"/><text x="190.0" y="308.9" text-anchor="end">-10%</text><line class="g" x1="196" x2="304" y1="271.5" y2="271.5"/><text x="190.0" y="275.0" text-anchor="end">-5%</text><line class="g" x1="196" x2="304" y1="237.6" y2="237.6"/><text x="190.0" y="241.1" text-anchor="end">0%</text><line class="ax" x1="196" x2="304" y1="310" y2="310"/><polyline style="stroke-width:1.5" class="l2" points="196.0,237.6 197.3,238.5 198.6,246.0 199.9,243.9 201.1,246.5 202.4,249.1 203.7,250.9 205.0,246.2 206.3,238.2 207.6,234.4 208.9,231.5 210.1,233.5 211.4,232.0 212.7,237.5 214.0,235.6 215.3,238.9 216.6,234.9 217.9,234.6 219.1,231.2 220.4,232.8 221.7,238.7 223.0,239.1 224.3,239.4 225.6,239.1 226.9,250.0 228.1,251.0 229.4,245.8 230.7,244.2 232.0,245.2 233.3,239.7 234.6,250.6 235.9,258.6 237.1,259.4 238.4,256.7 239.7,262.9 241.0,257.6 242.3,259.7 243.6,265.3 244.9,269.4 246.1,271.3 247.4,270.9 248.7,272.4 250.0,265.8 251.3,265.0 252.6,265.6 253.9,266.9 255.1,267.6 256.4,268.8 257.7,264.9 259.0,262.3 260.3,259.1 261.6,264.2 262.9,260.7 264.1,269.0 265.4,266.6 266.7,266.7 268.0,257.8 269.3,260.1 270.6,262.0 271.9,261.3 273.1,253.1 274.4,255.4 275.7,260.8 277.0,259.9 278.3,261.1 279.6,262.6 280.9,261.3 282.1,263.6 283.4,265.0 284.7,262.8 286.0,266.1 287.3,264.2 288.6,266.0 289.9,282.2 291.1,284.8 292.4,278.7 293.7,274.6 295.0,269.8 296.3,262.5 297.6,268.0 298.9,267.5 300.1,263.9 301.4,263.9 302.7,262.2 304.0,259.7"/><polyline style="stroke-width:1.5" class="l3" points="196.0,237.6 197.3,239.6 198.6,245.3 199.9,244.0 201.1,248.5 202.4,250.3 203.7,251.4 205.0,247.9 206.3,240.5 207.6,237.3 208.9,231.6 210.1,237.4 211.4,237.5 212.7,242.7 214.0,240.8 215.3,240.8 216.6,236.5 217.9,233.8 219.1,232.4 220.4,233.2 221.7,237.9 223.0,239.0 224.3,241.6 225.6,239.6 226.9,249.0 228.1,249.6 229.4,240.6 230.7,237.4 232.0,240.4 233.3,240.1 234.6,249.8 235.9,254.0 237.1,257.0 238.4,257.5 239.7,261.6 241.0,258.6 242.3,261.1 243.6,264.4 244.9,271.4 246.1,274.7 247.4,273.1 248.7,274.7 250.0,269.7 251.3,267.8 252.6,269.6 253.9,272.2 255.1,271.9 256.4,273.2 257.7,268.7 259.0,267.9 260.3,264.5 261.6,269.6 262.9,267.4 264.1,273.8 265.4,268.9 266.7,269.7 268.0,261.2 269.3,263.2 270.6,264.0 271.9,263.2 273.1,256.2 274.4,258.1 275.7,262.7 277.0,260.9 278.3,261.6 279.6,262.8 280.9,261.6 282.1,265.6 283.4,267.9 284.7,266.2 286.0,268.5 287.3,268.3 288.6,269.9 289.9,282.9 291.1,285.8 292.4,281.5 293.7,279.6 295.0,275.7 296.3,270.5 297.6,275.4 298.9,275.4 300.1,271.9 301.4,271.5 302.7,270.1 304.0,267.0"/><polyline style="stroke-width:1.5" class="l1" points="196.0,237.6 197.3,240.8 198.6,246.9 199.9,244.8 201.1,250.1 202.4,255.0 203.7,256.1 205.0,252.3 206.3,242.1 207.6,239.8 208.9,236.5 210.1,244.5 211.4,244.1 212.7,248.3 214.0,244.8 215.3,245.1 216.6,234.0 217.9,230.0 219.1,230.2 220.4,228.1 221.7,232.6 223.0,232.8 224.3,239.9 225.6,236.7 226.9,248.3 228.1,250.7 229.4,241.1 230.7,233.1 232.0,236.4 233.3,236.8 234.6,250.1 235.9,253.7 237.1,257.1 238.4,263.3 239.7,267.3 241.0,267.2 242.3,270.9 243.6,270.0 244.9,284.6 246.1,289.1 247.4,284.0 248.7,286.3 250.0,282.8 251.3,280.8 252.6,286.5 253.9,292.8 255.1,289.3 256.4,292.0 257.7,282.6 259.0,284.0 260.3,277.5 261.6,289.4 262.9,285.7 264.1,292.8 265.4,279.7 266.7,281.9 268.0,264.3 269.3,266.1 270.6,264.8 271.9,262.0 273.1,248.3 274.4,249.6 275.7,259.3 277.0,254.5 278.3,256.2 279.6,257.0 280.9,255.9 282.1,265.8 283.4,270.7 284.7,268.4 286.0,272.6 287.3,273.9 288.6,275.3 289.9,293.5 291.1,303.9 292.4,296.4 293.7,297.2 295.0,292.6 296.3,287.1 297.6,290.3 298.9,289.4 300.1,293.3 301.4,296.1 302.7,296.6 304.0,296.7"/><text x="344.0" y="216.0" class="v" text-anchor="start">2026-07-18  w=2.37‰</text><line class="g" x1="344" x2="452" y1="284.1" y2="284.1"/><text x="338.0" y="287.6" text-anchor="end">0%</text><line class="g" x1="344" x2="452" y1="252.4" y2="252.4"/><text x="338.0" y="255.9" text-anchor="end">5%</text><line class="ax" x1="344" x2="452" y1="310" y2="310"/><polyline style="stroke-width:1.5" class="l2" points="344.0,284.1 345.3,282.3 346.6,279.5 347.9,280.8 349.1,280.7 350.4,283.1 351.7,282.0 353.0,283.2 354.3,280.6 355.6,279.2 356.9,285.0 358.1,277.9 359.4,272.0 360.7,276.5 362.0,275.4 363.3,272.3 364.6,266.2 365.9,264.6 367.1,261.4 368.4,263.7 369.7,262.6 371.0,266.0 372.3,269.6 373.6,267.9 374.9,267.6 376.1,268.8 377.4,266.9 378.7,271.4 380.0,273.5 381.3,272.4 382.6,278.3 383.9,279.4 385.1,276.9 386.4,273.4 387.7,273.0 389.0,277.1 390.3,286.8 391.6,285.5 392.9,286.3 394.1,286.9 395.4,287.7 396.7,287.1 398.0,285.9 399.3,283.9 400.6,284.0 401.9,282.2 403.1,284.1 404.4,282.7 405.7,280.2 407.0,280.9 408.3,273.9 409.6,275.1 410.9,275.7 412.1,276.9 413.4,282.3 414.7,278.0 416.0,290.1 417.3,294.2 418.6,292.6 419.9,293.1 421.1,288.4 422.4,288.7 423.7,288.6 425.0,290.2 426.3,282.2 427.6,282.8 428.9,288.1 430.1,291.8 431.4,287.9 432.7,286.1 434.0,287.5 435.3,280.0 436.6,280.6 437.9,279.9 439.1,280.1 440.4,284.1 441.7,288.2 443.0,289.7 444.3,300.4 445.6,297.9 446.9,298.7 448.1,297.5 449.4,297.1 450.7,296.8 452.0,297.5"/><polyline style="stroke-width:1.5" class="l3" points="344.0,284.1 345.3,282.3 346.6,281.0 347.9,281.7 349.1,280.4 350.4,281.0 351.7,281.6 353.0,282.9 354.3,282.1 355.6,280.8 356.9,285.9 358.1,277.6 359.4,274.5 360.7,275.8 362.0,274.8 363.3,271.5 364.6,267.6 365.9,269.1 367.1,269.3 368.4,271.5 369.7,271.0 371.0,272.2 372.3,277.5 373.6,273.7 374.9,270.6 376.1,275.7 377.4,273.9 378.7,276.8 380.0,277.8 381.3,275.7 382.6,283.1 383.9,286.0 385.1,286.2 386.4,284.5 387.7,282.2 389.0,286.8 390.3,292.6 391.6,291.6 392.9,293.1 394.1,294.5 395.4,295.6 396.7,295.6 398.0,293.6 399.3,291.7 400.6,292.2 401.9,290.3 403.1,291.3 404.4,290.6 405.7,284.4 407.0,285.3 408.3,276.5 409.6,278.3 410.9,275.6 412.1,275.6 413.4,282.7 414.7,278.5 416.0,293.8 417.3,297.3 418.6,297.4 419.9,299.1 421.1,288.7 422.4,292.9 423.7,292.2 425.0,303.9 426.3,298.9 427.6,293.0 428.9,299.9 430.1,303.6 431.4,300.0 432.7,298.3 434.0,299.0 435.3,287.8 436.6,282.7 437.9,280.4 439.1,280.4 440.4,283.5 441.7,288.1 443.0,289.7 444.3,299.2 445.6,297.2 446.9,298.3 448.1,295.0 449.4,295.9 450.7,296.6 452.0,296.4"/><polyline style="stroke-width:1.5" class="l1" points="344.0,284.1 345.3,284.7 346.6,281.0 347.9,282.8 349.1,282.1 350.4,283.5 351.7,281.6 353.0,276.1 354.3,261.9 355.6,264.9 356.9,267.8 358.1,263.1 359.4,254.9 360.7,250.6 362.0,252.4 363.3,246.8 364.6,242.4 365.9,248.5 367.1,250.6 368.4,251.6 369.7,250.6 371.0,252.1 372.3,258.5 373.6,249.3 374.9,245.9 376.1,251.4 377.4,250.1 378.7,252.1 380.0,254.7 381.3,250.2 382.6,257.3 383.9,260.9 385.1,264.4 386.4,263.6 387.7,258.9 389.0,266.0 390.3,267.9 391.6,268.4 392.9,272.2 394.1,278.1 395.4,280.2 396.7,281.9 398.0,278.7 399.3,276.5 400.6,278.3 401.9,272.6 403.1,272.6 404.4,267.0 405.7,252.9 407.0,254.5 408.3,237.1 409.6,241.0 410.9,234.2 412.1,233.3 413.4,243.6 414.7,238.7 416.0,252.1 417.3,255.7 418.6,255.7 419.9,257.8 421.1,240.4 422.4,244.0 423.7,244.9 425.0,258.3 426.3,252.6 427.6,242.6 428.9,251.5 430.1,255.4 431.4,250.7 432.7,249.2 434.0,250.0 435.3,238.7 436.6,234.5 437.9,228.1 439.1,228.9 440.4,231.0 441.7,232.7 443.0,235.4 444.3,237.8 445.6,234.0 446.9,242.8 448.1,231.0 449.4,234.8 450.7,236.3 452.0,233.6"/><text x="492.0" y="216.0" class="v" text-anchor="start">2025-06-07  w=2.36‰</text><line class="g" x1="492" x2="600" y1="280.5" y2="280.5"/><text x="486.0" y="284.0" text-anchor="end">-10%</text><line class="g" x1="492" x2="600" y1="248.1" y2="248.1"/><text x="486.0" y="251.6" text-anchor="end">0%</text><line class="ax" x1="492" x2="600" y1="310" y2="310"/><polyline style="stroke-width:1.5" class="l2" points="492.0,248.1 493.3,247.3 494.6,247.8 495.9,248.1 497.1,248.2 498.4,247.4 499.7,246.5 501.0,245.5 502.3,247.2 503.6,247.5 504.9,247.8 506.1,241.0 507.4,241.4 508.7,238.6 510.0,233.4 511.3,235.5 512.6,236.6 513.9,235.6 515.1,237.2 516.4,235.6 517.7,233.3 519.0,235.0 520.3,235.9 521.6,236.4 522.9,235.0 524.1,238.0 525.4,238.3 526.7,240.7 528.0,241.4 529.3,243.7 530.6,243.3 531.9,244.0 533.1,247.5 534.4,251.7 535.7,249.8 537.0,249.4 538.3,248.2 539.6,249.2 540.9,246.2 542.1,248.8 543.4,249.3 544.7,249.3 546.0,250.0 547.3,250.6 548.6,248.2 549.9,248.1 551.1,248.2 552.4,249.6 553.7,247.8 555.0,248.6 556.3,247.7 557.6,246.7 558.9,243.2 560.1,243.7 561.4,242.1 562.7,238.3 564.0,244.0 565.3,241.6 566.6,244.1 567.9,247.6 569.1,251.8 570.4,250.5 571.7,250.9 573.0,248.9 574.3,249.6 575.6,250.0 576.9,250.1 578.1,253.2 579.4,249.9 580.7,249.2 582.0,250.6 583.3,250.2 584.6,252.3 585.9,251.8 587.1,250.6 588.4,250.7 589.7,247.0 591.0,246.5 592.3,251.9 593.6,254.7 594.9,254.7 596.1,254.1 597.4,254.2 598.7,253.0 600.0,253.9"/><polyline style="stroke-width:1.5" class="l3" points="492.0,248.1 493.3,247.3 494.6,247.2 495.9,248.1 497.1,248.2 498.4,247.8 499.7,247.2 501.0,246.4 502.3,248.2 503.6,248.4 504.9,249.2 506.1,243.6 507.4,244.4 508.7,241.1 510.0,235.1 511.3,234.8 512.6,235.8 513.9,230.9 515.1,232.9 516.4,231.4 517.7,228.2 519.0,230.5 520.3,230.8 521.6,231.7 522.9,228.1 524.1,234.7 525.4,235.4 526.7,239.0 528.0,240.0 529.3,242.6 530.6,242.1 531.9,243.6 533.1,248.2 534.4,258.2 535.7,256.1 537.0,255.6 538.3,254.4 539.6,254.8 540.9,252.0 542.1,254.8 543.4,256.4 544.7,256.6 546.0,257.7 547.3,257.3 548.6,256.7 549.9,256.7 551.1,257.9 552.4,257.9 553.7,258.2 555.0,259.3 556.3,257.6 557.6,255.9 558.9,250.0 560.1,251.0 561.4,248.4 562.7,246.8 564.0,255.8 565.3,252.4 566.6,254.3 567.9,255.2 569.1,258.3 570.4,258.9 571.7,259.6 573.0,259.0 574.3,259.3 575.6,259.9 576.9,259.5 578.1,261.1 579.4,258.8 580.7,258.0 582.0,257.3 583.3,257.6 584.6,260.0 585.9,259.5 587.1,258.4 588.4,259.1 589.7,256.8 591.0,257.3 592.3,259.9 593.6,263.9 594.9,264.3 596.1,264.0 597.4,264.9 598.7,264.9 600.0,265.9"/><polyline style="stroke-width:1.5" class="l1" points="492.0,248.1 493.3,248.5 494.6,248.8 495.9,248.1 497.1,247.8 498.4,248.2 499.7,249.0 501.0,251.0 502.3,249.6 503.6,248.9 504.9,248.2 506.1,251.7 507.4,251.4 508.7,251.7 510.0,255.8 511.3,254.3 512.6,253.7 513.9,255.1 515.1,251.8 516.4,248.7 517.7,242.0 519.0,246.8 520.3,246.2 521.6,249.4 522.9,240.9 524.1,251.9 525.4,254.3 526.7,259.0 528.0,261.7 529.3,265.0 530.6,264.2 531.9,266.5 533.1,269.9 534.4,283.4 535.7,280.8 537.0,279.7 538.3,279.2 539.6,283.1 540.9,275.9 542.1,279.3 543.4,279.8 544.7,280.9 546.0,285.4 547.3,287.6 548.6,285.0 549.9,284.5 551.1,286.6 552.4,286.3 553.7,285.4 555.0,287.1 556.3,284.9 557.6,281.4 558.9,272.5 560.1,273.9 561.4,272.8 562.7,270.8 564.0,284.2 565.3,277.5 566.6,282.2 567.9,286.4 569.1,293.3 570.4,291.6 571.7,293.4 573.0,291.3 574.3,292.1 575.6,295.2 576.9,294.7 578.1,296.9 579.4,293.4 580.7,292.5 582.0,292.1 583.3,291.9 584.6,296.5 585.9,295.5 587.1,294.1 588.4,294.8 589.7,292.1 591.0,292.3 592.3,296.6 593.6,301.9 594.9,302.4 596.1,301.3 597.4,302.2 598.7,301.8 600.0,303.9"/><text x="640.0" y="216.0" class="v" text-anchor="start">2026-07-19  w=2.33‰</text><line class="g" x1="640" x2="748" y1="283.9" y2="283.9"/><text x="634.0" y="287.4" text-anchor="end">0%</text><line class="g" x1="640" x2="748" y1="254.2" y2="254.2"/><text x="634.0" y="257.7" text-anchor="end">5%</text><line class="g" x1="640" x2="748" y1="224.5" y2="224.5"/><text x="634.0" y="228.0" text-anchor="end">10%</text><line class="ax" x1="640" x2="748" y1="310" y2="310"/><polyline style="stroke-width:1.5" class="l2" points="640.0,283.9 641.3,285.2 642.6,282.8 643.9,281.5 645.1,286.9 646.4,280.2 647.7,274.8 649.0,279.0 650.3,277.9 651.6,275.1 652.9,269.4 654.1,267.9 655.4,264.9 656.7,267.0 658.0,266.0 659.3,269.2 660.6,272.5 661.9,271.0 663.1,270.7 664.4,271.8 665.7,270.0 667.0,274.2 668.3,276.2 669.6,275.2 670.9,280.7 672.1,281.7 673.4,279.4 674.7,276.1 676.0,275.7 677.3,279.5 678.6,288.6 679.9,287.4 681.1,288.2 682.4,288.7 683.7,289.4 685.0,288.9 686.3,287.8 687.6,285.9 688.9,286.0 690.1,284.3 691.4,286.1 692.7,284.8 694.0,282.4 695.3,283.1 696.6,276.6 697.9,277.7 699.1,278.2 700.4,279.3 701.7,284.4 703.0,280.4 704.3,291.7 705.6,295.5 706.9,294.0 708.1,294.5 709.4,290.1 710.7,290.4 712.0,290.3 713.3,291.8 714.6,284.3 715.9,284.8 717.1,289.8 718.4,293.3 719.7,289.6 721.0,288.0 722.3,289.2 723.6,282.2 724.9,282.8 726.1,282.1 727.4,282.3 728.7,286.1 730.0,290.0 731.3,291.3 732.6,301.3 733.9,298.9 735.1,299.7 736.4,298.6 737.7,298.2 739.0,298.0 740.3,298.6 741.6,303.0 742.9,300.3 744.1,294.4 745.4,294.0 746.7,298.4 748.0,297.7"/><polyline style="stroke-width:1.5" class="l3" points="640.0,283.9 641.3,284.0 642.6,283.7 643.9,282.5 645.1,287.0 646.4,279.6 647.7,276.2 649.0,278.0 650.3,277.1 651.6,274.3 652.9,270.7 654.1,271.5 655.4,271.7 656.7,273.7 658.0,273.3 659.3,274.4 660.6,279.6 661.9,275.8 663.1,272.9 664.4,277.9 665.7,276.0 667.0,278.9 668.3,279.9 669.6,277.7 670.9,284.9 672.1,287.6 673.4,287.8 674.7,286.2 676.0,284.0 677.3,288.4 678.6,293.7 679.9,292.8 681.1,294.3 682.4,295.5 683.7,296.6 685.0,296.6 686.3,294.7 687.6,292.9 688.9,293.4 690.1,291.6 691.4,292.6 692.7,292.0 694.0,286.0 695.3,286.8 696.6,277.9 697.9,279.9 699.1,277.1 700.4,277.4 701.7,283.7 703.0,279.7 704.3,293.7 705.6,297.0 706.9,296.8 708.1,298.2 709.4,290.1 710.7,292.9 712.0,292.2 713.3,303.5 714.6,298.8 715.9,292.6 717.1,299.0 718.4,302.5 719.7,299.1 721.0,297.5 722.3,298.2 723.6,287.7 724.9,284.0 726.1,282.0 727.4,282.5 728.7,286.1 730.0,290.4 731.3,291.8 732.6,300.4 733.9,298.4 735.1,299.8 736.4,296.4 737.7,297.3 739.0,297.8 740.3,297.8 741.6,303.9 742.9,301.2 744.1,292.2 745.4,289.3 746.7,293.8 748.0,292.8"/><polyline style="stroke-width:1.5" class="l1" points="640.0,283.9 641.3,277.6 642.6,264.6 643.9,267.4 645.1,270.0 646.4,265.7 647.7,258.0 649.0,254.0 650.3,255.6 651.6,250.5 652.9,246.3 654.1,252.0 655.4,253.9 656.7,254.9 658.0,254.0 659.3,255.4 660.6,261.4 661.9,252.7 663.1,249.6 664.4,254.7 665.7,253.5 667.0,255.4 668.3,257.8 669.6,253.6 670.9,260.2 672.1,263.6 673.4,266.9 674.7,266.1 676.0,261.7 677.3,268.4 678.6,270.1 679.9,270.6 681.1,274.2 682.4,279.7 683.7,281.7 685.0,283.2 686.3,280.2 687.6,278.2 688.9,279.8 690.1,274.5 691.4,274.5 692.7,269.3 694.0,256.1 695.3,257.6 696.6,241.3 697.9,245.0 699.1,238.6 700.4,237.8 701.7,247.4 703.0,242.8 704.3,255.4 705.6,258.8 706.9,258.7 708.1,260.7 709.4,244.4 710.7,247.8 712.0,248.7 713.3,261.2 714.6,255.8 715.9,246.5 717.1,254.8 718.4,258.5 719.7,254.1 721.0,252.6 722.3,253.4 723.6,242.8 724.9,238.9 726.1,232.9 727.4,233.7 728.7,235.7 730.0,237.3 731.3,239.8 732.6,242.0 733.9,238.5 735.1,246.6 736.4,235.7 737.7,239.2 739.0,240.6 740.3,238.1 741.6,250.0 742.9,247.8 744.1,231.6 745.4,228.1 746.7,231.5 748.0,231.2"/><text x="48.0" y="346.0" class="v" text-anchor="start">2025-07-27  w=2.30‰</text><line class="g" x1="48" x2="156" y1="404.8" y2="404.8"/><text x="42.0" y="408.3" text-anchor="end">-10%</text><line class="g" x1="48" x2="156" y1="362.5" y2="362.5"/><text x="42.0" y="366.0" text-anchor="end">0%</text><line class="ax" x1="48" x2="156" y1="440" y2="440"/><polyline style="stroke-width:1.5" class="l2" points="48.0,362.5 49.3,363.4 50.6,361.8 51.9,362.3 53.1,363.6 54.4,363.9 55.7,366.2 57.0,366.6 58.3,366.6 59.6,364.1 60.9,363.7 62.1,364.7 63.4,368.9 64.7,368.5 66.0,367.0 67.3,366.2 68.6,366.4 69.9,368.3 71.1,366.8 72.4,370.6 73.7,367.4 75.0,365.2 76.3,364.4 77.6,365.5 78.9,365.7 80.1,371.1 81.4,374.7 82.7,375.1 84.0,377.1 85.3,376.3 86.6,376.2 87.9,383.4 89.1,383.5 90.4,381.3 91.7,381.0 93.0,381.7 94.3,385.1 95.6,387.2 96.9,386.1 98.1,382.4 99.4,382.0 100.7,381.5 102.0,381.1 103.3,379.9 104.6,380.2 105.9,379.0 107.1,378.7 108.4,379.2 109.7,378.0 111.0,378.2 112.3,377.2 113.6,380.1 114.9,381.1 116.1,378.1 117.4,384.7 118.7,382.3 120.0,380.5 121.3,382.7 122.6,380.2 123.9,380.2 125.1,376.0 126.4,376.5 127.7,377.5 129.0,379.1 130.3,378.2 131.6,372.1 132.9,371.5 134.1,368.7 135.4,368.7 136.7,371.3 138.0,371.0 139.3,370.8 140.6,373.2 141.9,372.3 143.1,371.5 144.4,372.6 145.7,371.2 147.0,370.0 148.3,370.8 149.6,372.0 150.9,372.3 152.1,365.1 153.4,367.5 154.7,365.7 156.0,363.9"/><polyline style="stroke-width:1.5" class="l3" points="48.0,362.5 49.3,361.6 50.6,360.5 51.9,361.2 53.1,360.8 54.4,361.4 55.7,366.2 57.0,367.3 58.3,368.2 59.6,367.2 60.9,365.0 62.1,368.1 63.4,373.3 64.7,374.5 66.0,373.0 67.3,372.3 68.6,373.5 69.9,377.2 71.1,378.1 72.4,375.9 73.7,372.4 75.0,370.3 76.3,370.1 77.6,369.7 78.9,372.8 80.1,376.6 81.4,380.5 82.7,379.2 84.0,382.8 85.3,382.4 86.6,384.0 87.9,389.5 89.1,392.0 90.4,388.9 91.7,389.7 93.0,391.3 94.3,394.9 95.6,398.8 96.9,398.2 98.1,393.5 99.4,392.1 100.7,390.4 102.0,390.3 103.3,388.8 104.6,388.6 105.9,386.0 107.1,385.7 108.4,385.7 109.7,381.9 111.0,381.1 112.3,379.8 113.6,382.4 114.9,383.9 116.1,379.8 117.4,386.9 118.7,386.5 120.0,384.2 121.3,387.2 122.6,383.6 123.9,384.7 125.1,381.1 126.4,380.1 127.7,379.9 129.0,381.3 130.3,379.4 131.6,374.4 132.9,373.7 134.1,371.0 135.4,370.9 136.7,372.4 138.0,372.4 139.3,372.4 140.6,373.3 141.9,369.7 143.1,370.5 144.4,368.5 145.7,365.0 147.0,364.4 148.3,365.3 149.6,362.9 150.9,362.0 152.1,362.7 153.4,365.7 154.7,365.0 156.0,359.2"/><polyline style="stroke-width:1.5" class="l1" points="48.0,362.5 49.3,360.2 50.6,360.5 51.9,360.0 53.1,358.1 54.4,361.0 55.7,370.1 57.0,372.6 58.3,374.7 59.6,376.0 60.9,369.0 62.1,378.3 63.4,390.1 64.7,391.8 66.0,389.4 67.3,388.8 68.6,389.2 69.9,400.0 71.1,396.0 72.4,392.9 73.7,389.8 75.0,381.5 76.3,376.7 77.6,376.3 78.9,388.7 80.1,396.8 81.4,406.1 82.7,401.4 84.0,406.3 85.3,403.8 86.6,407.3 87.9,410.9 89.1,414.1 90.4,407.1 91.7,412.0 93.0,417.7 94.3,422.2 95.6,421.9 96.9,423.3 98.1,424.7 99.4,423.7 100.7,424.3 102.0,423.6 103.3,424.0 104.6,423.5 105.9,422.9 107.1,422.2 108.4,421.7 109.7,420.7 111.0,420.4 112.3,420.9 113.6,420.1 114.9,419.9 116.1,421.3 117.4,419.1 118.7,418.3 120.0,418.7 121.3,417.2 122.6,419.6 123.9,418.5 125.1,422.1 126.4,421.2 127.7,421.0 129.0,419.3 130.3,420.6 131.6,427.1 132.9,427.0 134.1,426.3 135.4,427.6 136.7,427.4 138.0,429.4 139.3,428.4 140.6,428.0 141.9,432.2 143.1,430.9 144.4,427.5 145.7,430.7 147.0,430.3 148.3,430.3 149.6,430.9 150.9,430.9 152.1,433.9 153.4,429.8 154.7,428.3 156.0,429.3"/><text x="196.0" y="346.0" class="v" text-anchor="start">2025-04-23  w=2.28‰</text><line class="g" x1="196" x2="304" y1="427.2" y2="427.2"/><text x="190.0" y="430.7" text-anchor="end">-5%</text><line class="g" x1="196" x2="304" y1="390.8" y2="390.8"/><text x="190.0" y="394.3" text-anchor="end">0%</text><line class="g" x1="196" x2="304" y1="354.4" y2="354.4"/><text x="190.0" y="357.9" text-anchor="end">5%</text><line class="ax" x1="196" x2="304" y1="440" y2="440"/><polyline style="stroke-width:1.5" class="l2" points="196.0,390.8 197.3,392.7 198.6,391.2 199.9,399.1 201.1,402.7 202.4,399.5 203.7,395.0 205.0,392.2 206.3,388.9 207.6,394.1 208.9,390.5 210.1,383.9 211.4,380.6 212.7,378.8 214.0,383.8 215.3,383.1 216.6,384.4 217.9,387.7 219.1,385.9 220.4,386.4 221.7,383.9 223.0,387.6 224.3,388.3 225.6,389.4 226.9,389.6 228.1,385.4 229.4,390.7 230.7,390.0 232.0,383.4 233.3,378.6 234.6,390.1 235.9,382.7 237.1,380.9 238.4,383.7 239.7,381.7 241.0,380.0 242.3,382.3 243.6,378.7 244.9,386.8 246.1,380.8 247.4,384.0 248.7,379.7 250.0,388.8 251.3,387.6 252.6,387.5 253.9,382.7 255.1,380.8 256.4,371.9 257.7,366.7 259.0,369.2 260.3,369.5 261.6,364.7 262.9,370.6 264.1,366.1 265.4,363.0 266.7,366.1 268.0,366.4 269.3,370.7 270.6,370.8 271.9,373.8 273.1,370.1 274.4,370.6 275.7,374.4 277.0,375.5 278.3,374.2 279.6,377.8 280.9,377.4 282.1,376.5 283.4,386.7 284.7,388.6 286.0,382.9 287.3,388.5 288.6,390.6 289.9,386.1 291.1,383.1 292.4,385.3 293.7,385.7 295.0,390.3 296.3,384.5 297.6,381.4 298.9,366.8 300.1,369.4 301.4,365.6 302.7,365.2 304.0,366.1"/><polyline style="stroke-width:1.5" class="l3" points="196.0,390.8 197.3,391.7 198.6,391.3 199.9,398.9 201.1,399.9 202.4,398.5 203.7,390.2 205.0,387.8 206.3,384.6 207.6,387.8 208.9,382.6 210.1,375.9 211.4,374.7 212.7,374.9 214.0,374.6 215.3,366.6 216.6,369.4 217.9,376.1 219.1,372.8 220.4,371.3 221.7,368.9 223.0,370.6 224.3,370.7 225.6,373.8 226.9,375.5 228.1,372.2 229.4,376.8 230.7,376.9 232.0,367.8 233.3,365.5 234.6,377.2 235.9,369.7 237.1,369.9 238.4,370.6 239.7,368.0 241.0,369.6 242.3,371.9 243.6,369.9 244.9,377.2 246.1,371.7 247.4,377.1 248.7,372.0 250.0,386.8 251.3,381.2 252.6,378.0 253.9,374.6 255.1,371.4 256.4,362.3 257.7,360.6 259.0,363.9 260.3,365.6 261.6,362.8 262.9,369.8 264.1,365.4 265.4,362.7 266.7,364.1 268.0,363.7 269.3,366.6 270.6,368.9 271.9,375.8 273.1,371.8 274.4,375.9 275.7,378.3 277.0,379.6 278.3,378.9 279.6,380.9 280.9,380.6 282.1,379.9 283.4,387.7 284.7,389.3 286.0,384.7 287.3,389.1 288.6,390.7 289.9,387.2 291.1,384.9 292.4,386.7 293.7,387.0 295.0,390.8 296.3,386.4 297.6,383.9 298.9,372.7 300.1,374.5 301.4,371.5 302.7,372.6 304.0,375.8"/><polyline style="stroke-width:1.5" class="l1" points="196.0,390.8 197.3,395.2 198.6,395.1 199.9,418.1 201.1,418.9 202.4,414.7 203.7,400.1 205.0,394.3 206.3,387.4 207.6,394.5 208.9,380.6 210.1,366.8 211.4,372.7 212.7,377.2 214.0,373.7 215.3,358.1 216.6,368.3 217.9,382.8 219.1,374.8 220.4,367.5 221.7,362.6 223.0,361.9 224.3,360.7 225.6,370.4 226.9,379.8 228.1,374.2 229.4,383.0 230.7,386.2 232.0,360.8 233.3,362.9 234.6,383.1 235.9,368.7 237.1,373.0 238.4,372.9 239.7,369.0 241.0,376.5 242.3,383.3 243.6,381.9 244.9,394.6 246.1,386.7 247.4,393.1 248.7,390.0 250.0,409.7 251.3,401.4 252.6,394.6 253.9,392.9 255.1,387.5 256.4,371.2 257.7,378.1 259.0,384.3 260.3,391.7 261.6,392.1 262.9,405.2 264.1,398.6 265.4,377.9 266.7,385.3 268.0,382.4 269.3,387.4 270.6,392.5 271.9,408.3 273.1,406.1 274.4,411.2 275.7,416.7 277.0,426.4 278.3,425.9 279.6,426.3 280.9,418.7 282.1,425.7 283.4,430.8 284.7,428.7 286.0,406.6 287.3,417.8 288.6,417.0 289.9,405.8 291.1,406.7 292.4,406.6 293.7,408.3 295.0,433.9 296.3,424.1 297.6,418.8 298.9,401.8 300.1,399.5 301.4,397.6 302.7,405.9 304.0,420.5"/><text x="344.0" y="346.0" class="v" text-anchor="start">2023-09-03  w=2.27‰</text><line class="g" x1="344" x2="452" y1="403.7" y2="403.7"/><text x="338.0" y="407.2" text-anchor="end">0%</text><line class="g" x1="344" x2="452" y1="363.0" y2="363.0"/><text x="338.0" y="366.5" text-anchor="end">5%</text><line class="ax" x1="344" x2="452" y1="440" y2="440"/><polyline style="stroke-width:1.5" class="l2" points="344.0,403.7 345.3,399.4 346.6,400.6 347.9,400.1 349.1,400.8 350.4,403.1 351.7,405.6 353.0,403.1 354.3,405.2 355.6,409.4 356.9,408.1 358.1,406.5 359.4,407.3 360.7,409.7 362.0,406.3 363.3,406.6 364.6,408.3 365.9,408.1 367.1,412.7 368.4,409.5 369.7,407.3 371.0,404.8 372.3,407.2 373.6,408.9 374.9,406.7 376.1,403.5 377.4,391.7 378.7,391.8 380.0,391.6 381.3,404.7 382.6,404.6 383.9,403.0 385.1,402.5 386.4,403.6 387.7,403.3 389.0,404.0 390.3,403.0 391.6,403.8 392.9,402.8 394.1,404.1 395.4,404.4 396.7,406.1 398.0,406.8 399.3,406.0 400.6,404.7 401.9,407.9 403.1,405.6 404.4,412.3 405.7,427.5 407.0,430.5 408.3,426.1 409.6,406.0 410.9,405.3 412.1,396.6 413.4,393.2 414.7,397.6 416.0,404.7 417.3,403.5 418.6,403.5 419.9,393.5 421.1,392.1 422.4,395.3 423.7,392.7 425.0,391.3 426.3,388.9 427.6,385.7 428.9,377.9 430.1,378.4 431.4,383.3 432.7,380.3 434.0,381.9 435.3,386.3 436.6,389.6 437.9,387.2 439.1,380.8 440.4,380.3 441.7,384.1 443.0,383.2 444.3,383.7 445.6,382.9 446.9,382.1 448.1,383.0 449.4,384.1 450.7,381.9 452.0,382.4"/><polyline style="stroke-width:1.5" class="l3" points="344.0,403.7 345.3,399.7 346.6,400.8 347.9,399.1 349.1,400.1 350.4,402.8 351.7,401.9 353.0,399.7 354.3,400.5 355.6,404.4 356.9,402.2 358.1,398.8 359.4,398.7 360.7,399.6 362.0,398.1 363.3,394.6 364.6,397.6 365.9,396.8 367.1,399.9 368.4,395.1 369.7,390.2 371.0,387.3 372.3,393.1 373.6,399.5 374.9,394.9 376.1,392.1 377.4,385.9 378.7,386.9 380.0,387.6 381.3,398.9 382.6,399.4 383.9,398.7 385.1,397.0 386.4,398.3 387.7,398.9 389.0,400.8 390.3,400.8 391.6,400.7 392.9,401.3 394.1,403.9 395.4,405.8 396.7,408.0 398.0,409.8 399.3,409.7 400.6,408.5 401.9,410.3 403.1,409.6 404.4,419.6 405.7,429.2 407.0,433.9 408.3,429.1 409.6,412.1 410.9,412.6 412.1,406.9 413.4,403.4 414.7,406.6 416.0,409.9 417.3,410.4 418.6,410.4 419.9,406.6 421.1,404.8 422.4,406.5 423.7,405.3 425.0,405.9 426.3,405.2 427.6,401.4 428.9,398.5 430.1,397.9 431.4,399.1 432.7,397.4 434.0,398.2 435.3,400.0 436.6,398.7 437.9,397.4 439.1,392.6 440.4,394.8 441.7,396.6 443.0,398.2 444.3,398.0 445.6,398.3 446.9,397.5 448.1,398.7 449.4,398.4 450.7,397.7 452.0,397.4"/><polyline style="stroke-width:1.5" class="l1" points="344.0,403.7 345.3,407.8 346.6,408.2 347.9,411.6 349.1,410.7 350.4,408.1 351.7,405.8 353.0,407.9 354.3,407.1 355.6,403.1 356.9,405.6 358.1,408.6 359.4,411.3 360.7,409.3 362.0,411.6 363.3,411.8 364.6,408.1 365.9,409.3 367.1,405.3 368.4,408.4 369.7,410.7 371.0,413.5 372.3,410.0 373.6,406.4 374.9,409.3 376.1,411.0 377.4,415.5 378.7,415.7 380.0,414.6 381.3,407.2 382.6,407.2 383.9,407.4 385.1,408.0 386.4,407.8 387.7,407.1 389.0,408.6 390.3,408.0 391.6,405.9 392.9,404.4 394.1,402.1 395.4,393.2 396.7,390.8 398.0,388.8 399.3,387.2 400.6,387.8 401.9,385.2 403.1,382.5 404.4,373.4 405.7,373.9 407.0,368.2 408.3,372.0 409.6,378.1 410.9,374.9 412.1,377.3 413.4,358.1 414.7,361.6 416.0,364.9 417.3,365.1 418.6,367.6 419.9,373.0 421.1,372.3 422.4,370.5 423.7,373.3 425.0,384.2 426.3,381.1 427.6,374.4 428.9,374.6 430.1,372.2 431.4,370.0 432.7,371.4 434.0,367.5 435.3,366.7 436.6,365.2 437.9,365.8 439.1,371.8 440.4,376.9 441.7,377.1 443.0,379.2 444.3,374.3 445.6,375.6 446.9,379.4 448.1,376.0 449.4,372.0 450.7,372.4 452.0,370.1"/><text x="492.0" y="346.0" class="v" text-anchor="start">2025-07-26  w=2.24‰</text><line class="g" x1="492" x2="600" y1="423.2" y2="423.2"/><text x="486.0" y="426.7" text-anchor="end">-10%</text><line class="g" x1="492" x2="600" y1="381.9" y2="381.9"/><text x="486.0" y="385.4" text-anchor="end">0%</text><line class="ax" x1="492" x2="600" y1="440" y2="440"/><polyline style="stroke-width:1.5" class="l2" points="492.0,381.9 493.3,381.8 494.6,382.9 495.9,382.0 497.1,382.3 498.4,382.4 499.7,380.6 501.0,379.3 502.3,377.7 503.6,378.1 504.9,379.5 506.1,379.7 507.4,382.0 508.7,382.4 510.0,382.4 511.3,379.9 512.6,379.5 513.9,380.5 515.1,384.7 516.4,384.3 517.7,382.8 519.0,382.0 520.3,382.2 521.6,384.1 522.9,382.6 524.1,386.4 525.4,383.2 526.7,381.0 528.0,380.3 529.3,381.3 530.6,381.5 531.9,386.8 533.1,390.4 534.4,390.8 535.7,392.8 537.0,392.0 538.3,391.8 539.6,398.9 540.9,399.0 542.1,396.9 543.4,396.6 544.7,397.3 546.0,400.6 547.3,402.8 548.6,401.6 549.9,398.0 551.1,397.6 552.4,397.1 553.7,396.7 555.0,395.5 556.3,395.8 557.6,394.6 558.9,394.3 560.1,394.9 561.4,393.7 562.7,393.9 564.0,392.9 565.3,395.7 566.6,396.7 567.9,393.7 569.1,400.3 570.4,397.9 571.7,396.1 573.0,398.3 574.3,395.8 575.6,395.8 576.9,391.7 578.1,392.2 579.4,393.1 580.7,394.7 582.0,393.8 583.3,387.8 584.6,387.2 585.9,384.5 587.1,384.5 588.4,387.0 589.7,386.8 591.0,386.5 592.3,388.9 593.6,388.0 594.9,387.3 596.1,388.3 597.4,387.0 598.7,385.7 600.0,386.5"/><polyline style="stroke-width:1.5" class="l3" points="492.0,381.9 493.3,380.3 494.6,380.0 495.9,378.7 497.1,379.1 498.4,378.9 499.7,377.4 501.0,374.9 502.3,372.8 503.6,372.0 504.9,371.6 506.1,373.1 507.4,378.4 508.7,379.8 510.0,380.8 511.3,379.1 512.6,377.5 513.9,380.0 515.1,385.3 516.4,385.9 517.7,384.3 519.0,383.6 520.3,384.9 521.6,388.6 522.9,389.2 524.1,387.9 525.4,384.4 526.7,381.9 528.0,381.7 529.3,381.8 530.6,384.2 531.9,388.6 533.1,392.3 534.4,391.2 535.7,394.2 537.0,393.5 538.3,395.0 539.6,400.5 540.9,403.0 542.1,399.9 543.4,400.7 544.7,402.2 546.0,405.9 547.3,409.7 548.6,409.1 549.9,404.5 551.1,403.1 552.4,401.4 553.7,401.3 555.0,399.8 556.3,399.5 557.6,397.0 558.9,396.6 560.1,396.7 561.4,393.4 562.7,393.0 564.0,391.9 565.3,394.8 566.6,396.4 567.9,392.7 569.1,400.2 570.4,398.1 571.7,395.9 573.0,398.3 574.3,395.3 575.6,396.0 576.9,392.6 578.1,391.9 579.4,392.1 580.7,393.9 582.0,392.3 583.3,386.4 584.6,385.8 585.9,383.1 587.1,383.0 588.4,384.1 589.7,384.4 591.0,384.5 592.3,384.9 593.6,378.1 594.9,380.1 596.1,376.1 597.4,373.7 598.7,372.9 600.0,373.9"/><polyline style="stroke-width:1.5" class="l1" points="492.0,381.9 493.3,376.0 494.6,372.0 495.9,369.4 497.1,372.3 498.4,371.1 499.7,367.0 501.0,360.4 502.3,360.6 503.6,360.0 504.9,358.1 506.1,361.1 507.4,370.4 508.7,372.9 510.0,375.1 511.3,376.4 512.6,369.2 513.9,378.7 515.1,390.8 516.4,392.6 517.7,390.1 519.0,389.5 520.3,389.9 521.6,400.9 522.9,396.9 524.1,393.7 525.4,390.5 526.7,382.0 528.0,377.1 529.3,376.7 530.6,389.4 531.9,397.7 533.1,407.2 534.4,402.4 535.7,407.4 537.0,404.9 538.3,408.4 539.6,412.1 540.9,415.3 542.1,408.2 543.4,413.2 544.7,419.0 546.0,423.6 547.3,423.4 548.6,424.8 549.9,426.2 551.1,425.2 552.4,425.9 553.7,425.1 555.0,425.6 556.3,425.0 557.6,424.3 558.9,423.7 560.1,423.1 561.4,422.2 562.7,421.8 564.0,422.4 565.3,421.5 566.6,421.3 567.9,422.7 569.1,420.5 570.4,419.7 571.7,420.1 573.0,418.6 574.3,421.0 575.6,419.9 576.9,423.6 578.1,422.6 579.4,422.4 580.7,420.7 582.0,422.0 583.3,428.7 584.6,428.6 585.9,427.8 587.1,429.2 588.4,429.0 589.7,431.1 591.0,430.0 592.3,429.6 593.6,433.9 594.9,432.6 596.1,429.1 597.4,432.3 598.7,432.0 600.0,431.9"/><text x="640.0" y="346.0" class="v" text-anchor="start">2024-05-23  w=2.21‰</text><line class="g" x1="640" x2="748" y1="421.9" y2="421.9"/><text x="634.0" y="425.4" text-anchor="end">0%</text><line class="g" x1="640" x2="748" y1="392.0" y2="392.0"/><text x="634.0" y="395.5" text-anchor="end">5%</text><line class="g" x1="640" x2="748" y1="362.1" y2="362.1"/><text x="634.0" y="365.6" text-anchor="end">10%</text><line class="ax" x1="640" x2="748" y1="440" y2="440"/><polyline style="stroke-width:1.5" class="l2" points="640.0,421.9 641.3,428.0 642.6,421.2 643.9,421.9 645.1,428.3 646.4,426.6 647.7,418.0 649.0,411.1 650.3,416.1 651.6,414.2 652.9,414.3 654.1,411.2 655.4,412.7 656.7,410.7 658.0,409.6 659.3,411.5 660.6,409.1 661.9,410.9 663.1,413.5 664.4,413.0 665.7,416.5 667.0,413.2 668.3,415.3 669.6,417.1 670.9,400.0 672.1,409.8 673.4,408.3 674.7,420.5 676.0,423.6 677.3,417.5 678.6,417.7 679.9,417.2 681.1,417.4 682.4,413.6 683.7,421.4 685.0,423.0 686.3,426.4 687.6,427.4 688.9,424.0 690.1,419.9 691.4,424.6 692.7,422.5 694.0,416.3 695.3,415.2 696.6,417.8 697.9,416.2 699.1,419.4 700.4,417.9 701.7,427.8 703.0,423.7 704.3,425.0 705.6,423.4 706.9,424.2 708.1,423.9 709.4,423.6 710.7,423.1 712.0,423.0 713.3,422.8 714.6,423.4 715.9,418.7 717.1,419.7 718.4,423.2 719.7,423.0 721.0,417.6 722.3,412.9 723.6,411.4 724.9,406.7 726.1,410.3 727.4,413.8 728.7,410.6 730.0,412.0 731.3,412.5 732.6,399.4 733.9,399.6 735.1,398.6 736.4,395.0 737.7,392.8 739.0,394.8 740.3,389.4 741.6,392.1 742.9,393.6 744.1,394.1 745.4,394.4 746.7,393.1 748.0,391.9"/><polyline style="stroke-width:1.5" class="l3" points="640.0,421.9 641.3,425.1 642.6,419.1 643.9,419.5 645.1,428.6 646.4,426.7 647.7,421.7 649.0,419.0 650.3,421.0 651.6,415.6 652.9,414.0 654.1,412.6 655.4,414.5 656.7,413.5 658.0,413.4 659.3,414.5 660.6,413.9 661.9,411.6 663.1,415.9 664.4,413.1 665.7,417.8 667.0,410.0 668.3,407.1 669.6,408.4 670.9,400.6 672.1,409.8 673.4,407.7 674.7,412.5 676.0,412.5 677.3,405.8 678.6,408.6 679.9,409.0 681.1,410.3 682.4,409.4 683.7,414.2 685.0,419.0 686.3,422.1 687.6,424.7 688.9,423.9 690.1,420.3 691.4,431.9 692.7,428.4 694.0,424.0 695.3,423.7 696.6,425.9 697.9,424.5 699.1,425.8 700.4,422.4 701.7,429.0 703.0,424.4 704.3,425.4 705.6,424.0 706.9,424.4 708.1,423.9 709.4,423.2 710.7,424.3 712.0,425.0 713.3,425.0 714.6,428.3 715.9,425.5 717.1,426.1 718.4,432.4 719.7,430.6 721.0,428.7 722.3,419.6 723.6,419.7 724.9,420.0 726.1,422.1 727.4,426.8 728.7,424.1 730.0,427.7 731.3,427.5 732.6,421.6 733.9,420.6 735.1,417.8 736.4,408.5 737.7,406.7 739.0,409.9 740.3,408.0 741.6,409.4 742.9,409.4 744.1,410.0 745.4,409.5 746.7,406.1 748.0,409.1"/><polyline style="stroke-width:1.5" class="l1" points="640.0,421.9 641.3,424.9 642.6,409.5 643.9,403.3 645.1,427.4 646.4,422.2 647.7,410.8 649.0,415.4 650.3,419.4 651.6,415.1 652.9,402.6 654.1,403.4 655.4,408.1 656.7,407.6 658.0,408.7 659.3,407.4 660.6,404.1 661.9,395.3 663.1,405.5 664.4,397.9 665.7,405.3 667.0,390.5 668.3,376.6 669.6,375.0 670.9,358.9 672.1,370.8 673.4,361.9 674.7,376.8 676.0,375.9 677.3,358.1 678.6,370.1 679.9,368.1 681.1,369.6 682.4,366.3 683.7,378.2 685.0,387.6 686.3,394.6 687.6,397.6 688.9,398.4 690.1,389.1 691.4,427.7 692.7,424.4 694.0,410.5 695.3,408.8 696.6,417.7 697.9,414.7 699.1,413.5 700.4,407.6 701.7,416.5 703.0,406.0 704.3,405.6 705.6,406.7 706.9,404.9 708.1,406.4 709.4,401.9 710.7,407.0 712.0,413.4 713.3,413.8 714.6,421.5 715.9,415.1 717.1,418.5 718.4,433.9 719.7,429.2 721.0,426.4 722.3,399.2 723.6,400.5 724.9,400.9 726.1,408.0 727.4,419.7 728.7,413.2 730.0,419.3 731.3,419.6 732.6,409.3 733.9,407.5 735.1,400.3 736.4,379.5 737.7,377.0 739.0,384.1 740.3,386.6 741.6,386.6 742.9,387.0 744.1,382.5 745.4,384.0 746.7,377.5 748.0,382.4"/><text x="48.0" y="476.0" class="v" text-anchor="start">2026-07-04  w=2.20‰</text><line class="g" x1="48" x2="156" y1="569.6" y2="569.6"/><text x="42.0" y="573.1" text-anchor="end">-5%</text><line class="g" x1="48" x2="156" y1="527.9" y2="527.9"/><text x="42.0" y="531.4" text-anchor="end">0%</text><line class="g" x1="48" x2="156" y1="486.3" y2="486.3"/><text x="42.0" y="489.8" text-anchor="end">5%</text><line class="ax" x1="48" x2="156" y1="570" y2="570"/><polyline style="stroke-width:1.5" class="l2" points="48.0,527.9 49.3,523.9 50.6,525.9 51.9,530.9 53.1,527.6 54.4,532.3 55.7,531.3 57.0,530.9 58.3,519.2 59.6,523.9 60.9,526.6 62.1,534.6 63.4,520.6 64.7,518.1 66.0,514.1 67.3,525.3 68.6,526.7 69.9,522.5 71.1,515.5 72.4,517.0 73.7,523.0 75.0,530.9 76.3,529.3 77.6,537.1 78.9,545.0 80.1,537.4 81.4,537.2 82.7,541.4 84.0,527.9 85.3,530.7 86.6,529.6 87.9,524.6 89.1,524.8 90.4,515.3 91.7,515.1 93.0,509.0 94.3,514.1 95.6,515.7 96.9,512.5 98.1,512.7 99.4,512.5 100.7,512.0 102.0,512.3 103.3,510.9 104.6,517.0 105.9,511.7 107.1,516.2 108.4,514.4 109.7,512.3 111.0,511.6 112.3,517.6 113.6,530.4 114.9,528.1 116.1,529.2 117.4,532.9 118.7,537.3 120.0,536.7 121.3,533.5 122.6,533.7 123.9,529.9 125.1,504.9 126.4,507.2 127.7,500.9 129.0,504.2 130.3,507.4 131.6,505.0 132.9,495.9 134.1,501.8 135.4,504.7 136.7,506.5 138.0,511.6 139.3,511.3 140.6,505.4 141.9,511.1 143.1,517.0 144.4,520.4 145.7,530.2 147.0,524.0 148.3,522.0 149.6,512.6 150.9,515.6 152.1,514.5 153.4,514.7 154.7,513.8 156.0,513.1"/><polyline style="stroke-width:1.5" class="l3" points="48.0,527.9 49.3,529.3 50.6,531.8 51.9,536.0 53.1,535.3 54.4,536.7 55.7,533.7 57.0,533.8 58.3,533.3 59.6,536.5 60.9,538.0 62.1,539.9 63.4,537.5 64.7,537.1 66.0,537.5 67.3,541.7 68.6,541.8 69.9,542.4 71.1,541.0 72.4,544.2 73.7,548.2 75.0,553.5 76.3,554.6 77.6,559.8 78.9,563.9 80.1,559.8 81.4,560.1 82.7,562.1 84.0,555.8 85.3,556.6 86.6,557.1 87.9,555.4 89.1,555.3 90.4,550.8 91.7,549.4 93.0,546.8 94.3,547.8 95.6,547.4 96.9,549.2 98.1,550.9 99.4,549.9 100.7,547.2 102.0,543.7 103.3,538.1 104.6,547.9 105.9,545.1 107.1,547.3 108.4,545.8 109.7,541.9 111.0,539.9 112.3,544.8 113.6,550.9 114.9,550.7 116.1,553.4 117.4,554.8 118.7,557.4 120.0,558.2 121.3,556.1 122.6,554.5 123.9,552.7 125.1,532.2 126.4,533.9 127.7,529.1 129.0,532.3 130.3,537.3 131.6,529.9 132.9,521.8 134.1,531.1 135.4,529.3 136.7,527.6 138.0,531.8 139.3,537.5 140.6,533.4 141.9,541.4 143.1,553.4 144.4,551.5 145.7,557.2 147.0,552.7 148.3,553.2 149.6,549.7 150.9,547.7 152.1,547.8 153.4,554.1 154.7,556.4 156.0,553.2"/><polyline style="stroke-width:1.5" class="l1" points="48.0,527.9 49.3,530.2 50.6,528.3 51.9,521.2 53.1,522.3 54.4,518.9 55.7,519.8 57.0,522.2 58.3,524.4 59.6,524.4 60.9,523.0 62.1,521.7 63.4,519.7 64.7,523.3 66.0,521.7 67.3,515.4 68.6,516.3 69.9,515.5 71.1,519.4 72.4,526.1 73.7,537.4 75.0,545.8 76.3,545.1 77.6,551.6 78.9,560.9 80.1,553.6 81.4,553.6 82.7,556.2 84.0,545.6 85.3,547.7 86.6,551.9 87.9,549.0 89.1,547.4 90.4,536.8 91.7,539.1 93.0,527.6 94.3,530.6 95.6,527.9 96.9,531.3 98.1,533.5 99.4,532.2 100.7,524.2 102.0,515.5 103.3,507.1 104.6,527.2 105.9,521.5 107.1,526.5 108.4,521.5 109.7,512.6 111.0,509.1 112.3,519.4 113.6,532.8 114.9,531.6 116.1,535.5 117.4,538.2 118.7,541.3 120.0,541.8 121.3,536.0 122.6,535.9 123.9,529.9 125.1,502.6 126.4,505.4 127.7,498.3 129.0,502.9 130.3,510.9 131.6,499.6 132.9,488.1 134.1,499.0 135.4,498.9 136.7,496.2 138.0,503.4 139.3,511.0 140.6,513.0 141.9,522.5 143.1,540.0 144.4,536.5 145.7,545.3 147.0,536.8 148.3,535.8 149.6,536.4 150.9,535.0 152.1,538.7 153.4,543.6 154.7,542.3 156.0,536.8"/><text x="196.0" y="476.0" class="v" text-anchor="start">2023-09-02  w=2.20‰</text><line class="g" x1="196" x2="304" y1="535.0" y2="535.0"/><text x="190.0" y="538.5" text-anchor="end">0%</text><line class="g" x1="196" x2="304" y1="496.3" y2="496.3"/><text x="190.0" y="499.8" text-anchor="end">5%</text><line class="ax" x1="196" x2="304" y1="570" y2="570"/><polyline style="stroke-width:1.5" class="l2" points="196.0,535.0 197.3,536.6 198.6,535.6 199.9,535.7 201.1,533.0 202.4,533.4 203.7,535.4 205.0,531.3 206.3,532.5 207.6,532.0 208.9,532.7 210.1,534.9 211.4,537.2 212.7,534.8 214.0,536.9 215.3,540.9 216.6,539.6 217.9,538.1 219.1,538.9 220.4,541.1 221.7,537.9 223.0,538.2 224.3,539.8 225.6,539.6 226.9,544.0 228.1,540.9 229.4,538.8 230.7,536.5 232.0,538.7 233.3,540.4 234.6,538.3 235.9,535.2 237.1,524.0 238.4,524.1 239.7,524.0 241.0,536.4 242.3,536.3 243.6,534.8 244.9,534.3 246.1,535.4 247.4,535.0 248.7,535.7 250.0,534.8 251.3,535.6 252.6,534.6 253.9,535.8 255.1,536.1 256.4,537.8 257.7,538.4 259.0,537.6 260.3,536.4 261.6,539.4 262.9,537.2 264.1,543.6 265.4,558.1 266.7,560.9 268.0,556.7 269.3,537.6 270.6,536.9 271.9,528.7 273.1,525.5 274.4,529.6 275.7,536.4 277.0,535.2 278.3,535.2 279.6,525.7 280.9,524.4 282.1,527.5 283.4,525.0 284.7,523.7 286.0,521.3 287.3,518.3 288.6,510.9 289.9,511.4 291.1,516.0 292.4,513.3 293.7,514.7 295.0,518.9 296.3,522.0 297.6,519.8 298.9,513.7 300.1,513.2 301.4,516.9 302.7,516.0 304.0,516.5"/><polyline style="stroke-width:1.5" class="l3" points="196.0,535.0 197.3,535.6 198.6,534.2 199.9,534.0 201.1,531.9 202.4,532.4 203.7,534.9 205.0,533.1 206.3,533.5 207.6,530.8 208.9,531.8 210.1,534.6 211.4,535.2 212.7,533.4 214.0,534.1 215.3,536.4 216.6,534.6 217.9,531.4 219.1,529.9 220.4,530.9 221.7,529.1 223.0,527.4 224.3,530.3 225.6,529.6 226.9,533.3 228.1,528.8 229.4,524.1 230.7,521.3 232.0,526.9 233.3,531.8 234.6,528.2 235.9,525.9 237.1,520.0 238.4,521.0 239.7,521.0 241.0,531.9 242.3,531.9 243.6,530.7 244.9,529.1 246.1,530.4 247.4,530.9 248.7,532.2 250.0,532.3 251.3,532.5 252.6,533.5 253.9,535.6 255.1,537.2 256.4,539.3 257.7,541.0 259.0,540.9 260.3,539.7 261.6,541.5 262.9,540.9 264.1,550.3 265.4,559.4 266.7,563.9 268.0,559.3 269.3,543.2 270.6,543.7 271.9,538.2 273.1,534.9 274.4,537.9 275.7,541.1 277.0,541.6 278.3,541.5 279.6,537.9 280.9,536.3 282.1,537.9 283.4,536.7 284.7,536.2 286.0,535.9 287.3,533.0 288.6,530.3 289.9,528.8 291.1,529.9 292.4,528.4 293.7,530.0 295.0,531.6 296.3,530.4 297.6,529.2 298.9,522.1 300.1,524.2 301.4,526.3 302.7,528.6 304.0,528.9"/><polyline style="stroke-width:1.5" class="l1" points="196.0,535.0 197.3,533.8 198.6,536.2 199.9,537.2 201.1,536.7 202.4,536.2 203.7,533.7 205.0,535.6 206.3,536.0 207.6,539.2 208.9,538.3 210.1,535.8 211.4,533.7 212.7,535.6 214.0,534.9 215.3,531.0 216.6,533.4 217.9,536.3 219.1,538.9 220.4,537.0 221.7,539.2 223.0,539.3 224.3,535.9 225.6,537.0 226.9,533.2 228.1,536.1 229.4,538.3 230.7,541.0 232.0,537.7 233.3,534.2 234.6,536.9 235.9,538.6 237.1,542.9 238.4,543.1 239.7,542.0 241.0,535.0 242.3,534.9 243.6,535.1 244.9,535.7 246.1,535.5 247.4,534.9 248.7,536.3 250.0,535.7 251.3,533.8 252.6,532.3 253.9,530.1 255.1,521.6 256.4,519.3 257.7,517.4 259.0,515.9 260.3,516.4 261.6,514.0 262.9,511.4 264.1,502.7 265.4,503.2 266.7,497.7 268.0,501.4 269.3,507.2 270.6,504.1 271.9,506.5 273.1,488.1 274.4,491.5 275.7,494.6 277.0,494.8 278.3,497.2 279.6,502.3 280.9,501.6 282.1,499.9 283.4,502.6 284.7,513.1 286.0,510.0 287.3,503.7 288.6,503.8 289.9,501.6 291.1,499.5 292.4,500.8 293.7,497.1 295.0,496.3 296.3,494.9 297.6,495.5 298.9,501.1 300.1,506.0 301.4,506.3 302.7,508.2 304.0,503.5"/><text x="344.0" y="476.0" class="v" text-anchor="start">2024-05-27  w=2.17‰</text><line class="g" x1="344" x2="452" y1="555.1" y2="555.1"/><text x="338.0" y="558.6" text-anchor="end">-10%</text><line class="g" x1="344" x2="452" y1="499.6" y2="499.6"/><text x="338.0" y="503.1" text-anchor="end">0%</text><line class="ax" x1="344" x2="452" y1="570" y2="570"/><polyline style="stroke-width:1.5" class="l2" points="344.0,499.6 345.3,507.3 346.6,505.9 347.9,516.9 349.1,519.7 350.4,514.2 351.7,514.3 353.0,513.9 354.3,514.1 355.6,510.7 356.9,517.7 358.1,519.1 359.4,522.1 360.7,523.0 362.0,520.0 363.3,516.3 364.6,520.5 365.9,518.7 367.1,513.0 368.4,512.1 369.7,514.5 371.0,513.0 372.3,515.9 373.6,514.5 374.9,523.4 376.1,519.7 377.4,520.9 378.7,519.5 380.0,520.1 381.3,519.9 382.6,519.7 383.9,519.2 385.1,519.1 386.4,518.9 387.7,519.4 389.0,515.2 390.3,516.1 391.6,519.3 392.9,519.1 394.1,514.2 395.4,510.1 396.7,508.7 398.0,504.5 399.3,507.7 400.6,510.8 401.9,508.0 403.1,509.2 404.4,509.7 405.7,498.0 407.0,498.1 408.3,497.2 409.6,494.0 410.9,492.0 412.1,493.8 413.4,489.0 414.7,491.4 416.0,492.7 417.3,493.2 418.6,493.4 419.9,492.2 421.1,491.2 422.4,497.7 423.7,495.2 425.0,493.7 426.3,492.7 427.6,488.1 428.9,492.7 430.1,507.4 431.4,506.6 432.7,506.0 434.0,504.8 435.3,506.5 436.6,506.0 437.9,505.8 439.1,506.9 440.4,507.3 441.7,507.1 443.0,506.5 444.3,505.4 445.6,503.8 446.9,504.3 448.1,504.6 449.4,507.0 450.7,505.6 452.0,501.0"/><polyline style="stroke-width:1.5" class="l3" points="344.0,499.6 345.3,507.1 346.6,503.6 347.9,511.9 349.1,513.1 350.4,504.5 351.7,509.1 353.0,507.4 354.3,509.3 355.6,505.1 356.9,510.6 358.1,515.4 359.4,520.4 360.7,521.5 362.0,520.1 363.3,516.3 364.6,525.5 365.9,524.2 367.1,520.8 368.4,520.4 369.7,522.2 371.0,521.6 372.3,522.9 373.6,519.2 374.9,525.5 376.1,521.1 377.4,521.8 378.7,521.1 380.0,521.3 381.3,521.4 382.6,520.6 383.9,521.1 385.1,521.9 386.4,521.7 387.7,523.4 389.0,521.5 390.3,521.9 391.6,526.3 392.9,524.8 394.1,524.3 395.4,517.8 396.7,517.4 398.0,517.8 399.3,520.4 400.6,522.8 401.9,521.6 403.1,523.4 404.4,523.0 405.7,520.6 407.0,519.6 408.3,517.2 409.6,509.8 410.9,508.8 412.1,511.3 413.4,511.1 414.7,511.9 416.0,511.9 417.3,512.5 418.6,512.3 419.9,510.2 421.1,511.6 422.4,515.3 423.7,511.5 425.0,511.9 426.3,512.0 427.6,510.4 428.9,513.1 430.1,524.9 431.4,523.4 432.7,521.6 434.0,519.4 435.3,524.6 436.6,522.6 437.9,522.8 439.1,523.9 440.4,526.5 441.7,524.9 443.0,523.3 444.3,524.7 445.6,523.7 446.9,524.7 448.1,527.9 449.4,536.1 450.7,531.8 452.0,528.2"/><polyline style="stroke-width:1.5" class="l1" points="344.0,499.6 345.3,508.8 346.6,501.6 347.9,514.1 349.1,513.4 350.4,498.4 351.7,508.5 353.0,506.8 354.3,508.1 355.6,505.3 356.9,515.2 358.1,523.2 359.4,529.0 360.7,531.6 362.0,532.2 363.3,524.5 364.6,556.9 365.9,554.1 367.1,542.4 368.4,541.0 369.7,548.4 371.0,545.9 372.3,545.0 373.6,540.0 374.9,547.4 376.1,538.7 377.4,538.3 378.7,539.2 380.0,537.7 381.3,539.0 382.6,535.2 383.9,539.5 385.1,544.9 386.4,545.2 387.7,551.7 389.0,546.3 390.3,549.2 391.6,562.1 392.9,558.1 394.1,555.8 395.4,532.9 396.7,534.0 398.0,534.4 399.3,540.3 400.6,550.1 401.9,544.7 403.1,549.8 404.4,550.0 405.7,541.4 407.0,539.9 408.3,533.9 409.6,516.4 410.9,514.3 412.1,520.2 413.4,522.4 414.7,522.4 416.0,522.6 417.3,518.9 418.6,520.2 419.9,514.7 421.1,518.8 422.4,527.0 423.7,520.1 425.0,521.2 426.3,520.6 427.6,517.8 428.9,523.8 430.1,554.5 431.4,550.8 432.7,543.2 434.0,537.2 435.3,552.4 436.6,548.5 437.9,547.4 439.1,550.0 440.4,550.3 441.7,550.1 443.0,546.0 444.3,548.4 445.6,545.7 446.9,546.5 448.1,552.0 449.4,563.9 450.7,557.2 452.0,549.8"/><text x="492.0" y="476.0" class="v" text-anchor="start">2020-06-18  w=2.17‰</text><line class="g" x1="492" x2="600" y1="563.7" y2="563.7"/><text x="486.0" y="567.2" text-anchor="end">-5%</text><line class="g" x1="492" x2="600" y1="516.7" y2="516.7"/><text x="486.0" y="520.2" text-anchor="end">0%</text><line class="ax" x1="492" x2="600" y1="570" y2="570"/><polyline style="stroke-width:1.5" class="l2" points="492.0,516.7 493.3,517.9 494.6,519.1 495.9,530.3 497.1,527.8 498.4,519.1 499.7,519.4 501.0,527.0 502.3,526.7 503.6,524.7 504.9,527.4 506.1,525.1 507.4,531.7 508.7,529.1 510.0,521.8 511.3,520.5 512.6,520.8 513.9,521.9 515.1,520.4 516.4,522.6 517.7,528.2 519.0,519.1 520.3,515.8 521.6,511.8 522.9,508.5 524.1,501.4 525.4,489.2 526.7,491.9 528.0,491.4 529.3,494.4 530.6,488.6 531.9,493.7 533.1,495.3 534.4,492.6 535.7,506.4 537.0,524.6 538.3,532.7 539.6,527.8 540.9,528.0 542.1,547.7 543.4,540.4 544.7,532.2 546.0,534.1 547.3,529.0 548.6,532.8 549.9,533.1 551.1,543.1 552.4,538.8 553.7,542.5 555.0,541.1 556.3,541.5 557.6,541.7 558.9,540.3 560.1,541.7 561.4,544.7 562.7,563.9 564.0,556.5 565.3,560.6 566.6,555.4 567.9,552.5 569.1,541.8 570.4,546.5 571.7,546.1 573.0,548.1 574.3,548.1 575.6,548.0 576.9,545.3 578.1,542.0 579.4,538.5 580.7,541.6 582.0,543.3 583.3,542.9 584.6,540.8 585.9,544.3 587.1,543.9 588.4,543.9 589.7,544.2 591.0,541.9 592.3,531.4 593.6,533.8 594.9,534.6 596.1,534.0 597.4,537.0 598.7,538.1 600.0,552.9"/><polyline style="stroke-width:1.5" class="l3" points="492.0,516.7 493.3,517.8 494.6,519.9 495.9,530.0 497.1,527.5 498.4,520.1 499.7,519.4 501.0,524.5 502.3,525.5 503.6,523.2 504.9,525.9 506.1,525.5 507.4,531.8 508.7,529.7 510.0,524.3 511.3,523.2 512.6,522.6 513.9,523.7 515.1,520.7 516.4,522.6 517.7,528.3 519.0,518.8 520.3,514.7 521.6,510.9 522.9,507.5 524.1,503.0 525.4,497.1 526.7,500.1 528.0,498.2 529.3,501.0 530.6,490.5 531.9,489.7 533.1,494.3 534.4,488.1 535.7,501.1 537.0,514.3 538.3,526.2 539.6,519.4 540.9,517.6 542.1,538.1 543.4,529.8 544.7,519.5 546.0,522.4 547.3,519.3 548.6,522.2 549.9,522.8 551.1,534.5 552.4,527.4 553.7,532.0 555.0,531.1 556.3,531.7 557.6,532.7 558.9,530.9 560.1,534.2 561.4,540.6 562.7,563.9 564.0,555.6 565.3,560.0 566.6,558.2 567.9,552.7 569.1,542.2 570.4,547.7 571.7,547.7 573.0,546.2 574.3,547.9 575.6,547.3 576.9,543.1 578.1,540.1 579.4,535.7 580.7,537.9 582.0,539.7 583.3,538.3 584.6,536.5 585.9,541.2 587.1,541.8 588.4,542.0 589.7,542.1 591.0,537.3 592.3,521.5 593.6,522.5 594.9,518.8 596.1,515.7 597.4,519.1 598.7,523.2 600.0,536.5"/><polyline style="stroke-width:1.5" class="l1" points="492.0,516.7 493.3,517.2 494.6,519.1 495.9,528.7 497.1,526.3 498.4,519.1 499.7,518.0 501.0,521.3 502.3,522.2 503.6,522.0 504.9,524.4 506.1,526.7 507.4,530.3 508.7,530.3 510.0,529.3 511.3,528.4 512.6,529.5 513.9,531.1 515.1,525.3 516.4,526.6 517.7,525.8 519.0,526.5 520.3,523.3 521.6,524.3 522.9,527.5 524.1,530.3 525.4,531.2 526.7,531.9 528.0,531.4 529.3,533.6 530.6,536.6 531.9,531.9 533.1,537.6 534.4,535.6 535.7,534.2 537.0,538.3 538.3,549.3 539.6,544.8 540.9,544.6 542.1,533.6 543.4,538.0 544.7,543.2 546.0,540.5 547.3,541.6 548.6,539.0 549.9,538.9 551.1,528.1 552.4,540.7 553.7,535.0 555.0,537.5 556.3,538.9 557.6,538.5 558.9,534.2 560.1,533.2 561.4,535.7 562.7,510.9 564.0,521.3 565.3,516.6 566.6,523.1 567.9,529.5 569.1,536.5 570.4,530.0 571.7,531.7 573.0,530.8 574.3,527.2 575.6,529.4 576.9,531.5 578.1,534.8 579.4,536.5 580.7,534.9 582.0,533.7 583.3,537.0 584.6,537.4 585.9,535.2 587.1,535.7 588.4,535.6 589.7,535.1 591.0,539.4 592.3,546.1 593.6,544.2 594.9,545.4 596.1,547.8 597.4,545.5 598.7,543.3 600.0,533.8"/><text x="640.0" y="476.0" class="v" text-anchor="start">2023-06-28  w=2.15‰</text><line class="g" x1="640" x2="748" y1="532.3" y2="532.3"/><text x="634.0" y="535.8" text-anchor="end">0%</text><line class="g" x1="640" x2="748" y1="487.8" y2="487.8"/><text x="634.0" y="491.3" text-anchor="end">5%</text><line class="ax" x1="640" x2="748" y1="570" y2="570"/><polyline style="stroke-width:1.5" class="l2" points="640.0,532.3 641.3,537.9 642.6,538.5 643.9,535.6 645.1,530.8 646.4,521.1 647.7,526.7 649.0,523.6 650.3,527.7 651.6,518.9 652.9,518.3 654.1,514.1 655.4,538.8 656.7,529.8 658.0,526.9 659.3,529.1 660.6,527.3 661.9,525.4 663.1,524.0 664.4,522.9 665.7,523.6 667.0,525.8 668.3,525.7 669.6,524.8 670.9,526.2 672.1,524.4 673.4,522.7 674.7,518.6 676.0,521.2 677.3,522.4 678.6,509.4 679.9,503.9 681.1,506.8 682.4,505.7 683.7,514.0 685.0,509.4 686.3,512.5 687.6,520.3 688.9,518.3 690.1,515.3 691.4,518.0 692.7,528.9 694.0,530.3 695.3,528.1 696.6,526.0 697.9,526.4 699.1,517.2 700.4,515.9 701.7,528.8 703.0,531.7 704.3,543.9 705.6,536.8 706.9,540.6 708.1,537.3 709.4,529.3 710.7,533.6 712.0,530.7 713.3,532.7 714.6,535.1 715.9,534.9 717.1,534.7 718.4,537.5 719.7,532.4 721.0,532.4 722.3,533.0 723.6,533.0 724.9,530.5 726.1,533.7 727.4,536.1 728.7,536.2 730.0,537.5 731.3,533.8 732.6,531.6 733.9,516.2 735.1,528.7 736.4,526.8 737.7,525.1 739.0,528.9 740.3,523.3 741.6,523.7 742.9,522.6 744.1,523.5 745.4,519.1 746.7,518.0 748.0,525.4"/><polyline style="stroke-width:1.5" class="l3" points="640.0,532.3 641.3,543.0 642.6,543.4 643.9,540.5 645.1,537.8 646.4,524.6 647.7,534.1 649.0,533.1 650.3,534.9 651.6,518.4 652.9,518.1 654.1,513.6 655.4,532.0 656.7,511.1 658.0,507.6 659.3,514.8 660.6,513.1 661.9,513.3 663.1,512.3 664.4,511.0 665.7,509.0 667.0,513.5 668.3,508.9 669.6,507.7 670.9,506.3 672.1,506.2 673.4,501.0 674.7,497.6 676.0,496.6 677.3,498.9 678.6,493.4 679.9,492.2 681.1,495.7 682.4,493.2 683.7,500.6 685.0,496.0 686.3,497.9 687.6,506.1 688.9,505.3 690.1,502.3 691.4,504.5 692.7,514.3 694.0,517.8 695.3,516.3 696.6,512.2 697.9,509.7 699.1,506.8 700.4,506.9 701.7,516.3 703.0,513.3 704.3,529.4 705.6,518.3 706.9,525.2 708.1,519.5 709.4,509.2 710.7,511.5 712.0,510.6 713.3,510.5 714.6,510.0 715.9,509.7 717.1,510.7 718.4,514.5 719.7,511.5 721.0,511.1 722.3,511.7 723.6,512.9 724.9,514.4 726.1,515.1 727.4,516.7 728.7,520.6 730.0,524.1 731.3,523.3 732.6,521.5 733.9,513.5 735.1,520.2 736.4,515.5 737.7,515.1 739.0,517.2 740.3,515.5 741.6,517.4 742.9,515.7 744.1,517.2 745.4,516.4 746.7,515.9 748.0,519.0"/><polyline style="stroke-width:1.5" class="l1" points="640.0,532.3 641.3,551.7 642.6,552.7 643.9,546.5 645.1,539.1 646.4,524.1 647.7,535.7 649.0,535.6 650.3,540.3 651.6,516.9 652.9,516.1 654.1,509.2 655.4,541.5 656.7,518.0 658.0,510.5 659.3,523.5 660.6,518.3 661.9,517.5 663.1,513.8 664.4,516.8 665.7,508.4 667.0,523.9 668.3,511.9 669.6,509.5 670.9,511.5 672.1,512.2 673.4,500.4 674.7,492.0 676.0,488.7 677.3,488.9 678.6,488.1 679.9,490.1 681.1,498.1 682.4,495.3 683.7,509.3 685.0,501.5 686.3,504.3 687.6,515.0 688.9,517.7 690.1,509.2 691.4,509.3 692.7,535.4 694.0,546.2 695.3,540.3 696.6,536.8 697.9,529.4 699.1,526.0 700.4,527.7 701.7,543.9 703.0,540.0 704.3,561.8 705.6,547.2 706.9,555.5 708.1,549.9 709.4,532.6 710.7,536.2 712.0,530.9 713.3,531.6 714.6,530.0 715.9,528.3 717.1,533.1 718.4,539.4 719.7,530.6 721.0,532.2 722.3,535.8 723.6,538.7 724.9,539.6 726.1,540.8 727.4,547.4 728.7,558.7 730.0,563.9 731.3,560.3 732.6,555.7 733.9,541.8 735.1,554.3 736.4,546.6 737.7,542.7 739.0,543.2 740.3,541.9 741.6,546.1 742.9,541.9 744.1,540.5 745.4,535.0 746.7,534.3 748.0,540.6"/><text x="48.0" y="606.0" class="v" text-anchor="start">2022-12-10  w=2.15‰</text><line class="g" x1="48" x2="156" y1="681.9" y2="681.9"/><text x="42.0" y="685.4" text-anchor="end">-10%</text><line class="g" x1="48" x2="156" y1="639.2" y2="639.2"/><text x="42.0" y="642.7" text-anchor="end">0%</text><line class="ax" x1="48" x2="156" y1="700" y2="700"/><polyline style="stroke-width:1.5" class="l2" points="48.0,639.2 49.3,640.0 50.6,641.2 51.9,640.5 53.1,639.9 54.4,640.2 55.7,640.5 57.0,639.9 58.3,642.2 59.6,646.3 60.9,646.2 62.1,644.6 63.4,644.1 64.7,643.3 66.0,639.1 67.3,640.6 68.6,640.2 69.9,633.3 71.1,625.7 72.4,626.0 73.7,625.2 75.0,625.0 76.3,624.4 77.6,623.9 78.9,618.1 80.1,624.7 81.4,624.5 82.7,626.3 84.0,627.2 85.3,626.5 86.6,633.7 87.9,633.4 89.1,635.5 90.4,633.8 91.7,631.9 93.0,643.7 94.3,645.0 95.6,647.7 96.9,653.5 98.1,652.4 99.4,650.7 100.7,651.6 102.0,651.8 103.3,652.0 104.6,649.9 105.9,650.8 107.1,650.5 108.4,651.5 109.7,652.2 111.0,650.5 112.3,650.8 113.6,652.2 114.9,651.2 116.1,650.9 117.4,652.5 118.7,655.4 120.0,658.3 121.3,651.1 122.6,649.2 123.9,649.0 125.1,646.4 126.4,646.8 127.7,646.9 129.0,648.4 130.3,648.9 131.6,647.4 132.9,647.8 134.1,650.4 135.4,648.7 136.7,648.0 138.0,648.6 139.3,648.4 140.6,653.3 141.9,652.7 143.1,648.8 144.4,648.6 145.7,648.1 147.0,648.2 148.3,648.5 149.6,648.2 150.9,649.8 152.1,648.3 153.4,648.1 154.7,648.7 156.0,648.4"/><polyline style="stroke-width:1.5" class="l3" points="48.0,639.2 49.3,639.7 50.6,640.9 51.9,640.2 53.1,639.9 54.4,640.7 55.7,640.9 57.0,640.6 58.3,643.9 59.6,648.1 60.9,648.5 62.1,646.6 63.4,646.8 64.7,645.8 66.0,641.9 67.3,643.6 68.6,644.0 69.9,640.1 71.1,633.2 72.4,636.0 73.7,633.2 75.0,632.4 76.3,632.6 77.6,632.2 78.9,626.8 80.1,634.5 81.4,636.2 82.7,636.7 84.0,639.0 85.3,637.7 86.6,641.8 87.9,643.0 89.1,645.7 90.4,644.4 91.7,642.7 93.0,657.4 94.3,659.9 95.6,660.9 96.9,671.0 98.1,670.8 99.4,668.8 100.7,669.1 102.0,669.1 103.3,669.7 104.6,667.4 105.9,667.6 107.1,668.9 108.4,668.8 109.7,669.8 111.0,668.6 112.3,668.8 113.6,669.8 114.9,669.8 116.1,669.0 117.4,669.7 118.7,671.7 120.0,673.1 121.3,669.3 122.6,667.4 123.9,667.2 125.1,666.4 126.4,666.7 127.7,666.2 129.0,667.8 130.3,667.7 131.6,666.6 132.9,667.0 134.1,668.5 135.4,667.4 136.7,667.0 138.0,667.4 139.3,667.0 140.6,670.6 141.9,669.7 143.1,666.9 144.4,666.5 145.7,667.3 147.0,667.4 148.3,668.1 149.6,668.2 150.9,668.4 152.1,668.3 153.4,668.2 154.7,668.5 156.0,668.4"/><polyline style="stroke-width:1.5" class="l1" points="48.0,639.2 49.3,639.6 50.6,640.4 51.9,638.7 53.1,638.4 54.4,639.0 55.7,639.4 57.0,639.3 58.3,643.7 59.6,649.6 60.9,649.3 62.1,647.1 63.4,647.9 64.7,647.4 66.0,643.4 67.3,645.0 68.6,646.5 69.9,641.1 71.1,635.8 72.4,638.8 73.7,636.2 75.0,634.5 76.3,635.2 77.6,634.9 78.9,628.7 80.1,638.1 81.4,640.0 82.7,640.3 84.0,642.5 85.3,641.3 86.6,645.8 87.9,648.1 89.1,650.4 90.4,649.1 91.7,647.5 93.0,662.4 94.3,665.8 95.6,666.3 96.9,683.6 98.1,683.8 99.4,679.6 100.7,681.0 102.0,681.0 103.3,682.9 104.6,677.3 105.9,677.5 107.1,681.1 108.4,681.1 109.7,683.3 111.0,681.0 112.3,681.6 113.6,685.3 114.9,683.2 116.1,682.2 117.4,684.2 118.7,689.0 120.0,693.9 121.3,687.4 122.6,683.6 123.9,684.2 125.1,683.1 126.4,683.6 127.7,683.0 129.0,688.2 130.3,688.3 131.6,685.8 132.9,686.8 134.1,689.4 135.4,687.5 136.7,687.0 138.0,687.4 139.3,685.9 140.6,691.9 141.9,690.1 143.1,686.1 144.4,685.0 145.7,686.8 147.0,686.8 148.3,687.3 149.6,687.5 150.9,687.9 152.1,687.5 153.4,688.1 154.7,688.3 156.0,688.0"/><text x="196.0" y="606.0" class="v" text-anchor="start">2025-02-07  w=2.14‰</text><line class="g" x1="196" x2="304" y1="699.7" y2="699.7"/><text x="190.0" y="703.2" text-anchor="end">-5%</text><line class="g" x1="196" x2="304" y1="646.7" y2="646.7"/><text x="190.0" y="650.2" text-anchor="end">0%</text><line class="ax" x1="196" x2="304" y1="700" y2="700"/><polyline style="stroke-width:1.5" class="l2" points="196.0,646.7 197.3,657.8 198.6,662.1 199.9,660.0 201.1,665.3 202.4,666.2 203.7,669.2 205.0,661.3 206.3,662.7 207.6,653.5 208.9,656.1 210.1,661.5 211.4,662.2 212.7,666.8 214.0,662.5 215.3,658.7 216.6,652.1 217.9,649.6 219.1,654.3 220.4,652.6 221.7,652.0 223.0,650.1 224.3,643.0 225.6,644.3 226.9,656.6 228.1,677.9 229.4,669.9 230.7,675.1 232.0,666.8 233.3,666.5 234.6,669.5 235.9,654.5 237.1,647.3 238.4,651.3 239.7,666.8 241.0,668.3 242.3,667.5 243.6,671.5 244.9,660.9 246.1,655.3 247.4,657.3 248.7,657.9 250.0,657.5 251.3,646.5 252.6,651.3 253.9,649.6 255.1,652.9 256.4,650.0 257.7,649.8 259.0,650.9 260.3,650.5 261.6,650.8 262.9,654.0 264.1,653.1 265.4,657.7 266.7,656.1 268.0,666.2 269.3,665.2 270.6,666.8 271.9,666.8 273.1,671.2 274.4,672.6 275.7,669.9 277.0,665.3 278.3,673.4 279.6,671.4 280.9,672.4 282.1,688.0 283.4,671.0 284.7,670.6 286.0,670.9 287.3,662.9 288.6,668.1 289.9,665.3 291.1,660.5 292.4,656.1 293.7,658.1 295.0,654.4 296.3,657.7 297.6,641.3 298.9,642.5 300.1,644.3 301.4,643.9 302.7,639.1 304.0,644.7"/><polyline style="stroke-width:1.5" class="l3" points="196.0,646.7 197.3,652.3 198.6,657.8 199.9,656.1 201.1,654.0 202.4,653.1 203.7,656.9 205.0,649.6 206.3,648.9 207.6,643.6 208.9,642.7 210.1,644.7 211.4,645.6 212.7,649.8 214.0,648.6 215.3,649.8 216.6,645.0 217.9,640.4 219.1,640.6 220.4,638.4 221.7,638.9 223.0,630.5 224.3,625.2 225.6,626.1 226.9,631.0 228.1,648.8 229.4,642.6 230.7,649.1 232.0,646.7 233.3,641.6 234.6,645.0 235.9,622.5 237.1,621.6 238.4,618.1 239.7,626.6 241.0,627.7 242.3,628.9 243.6,633.2 244.9,628.3 246.1,625.0 247.4,631.1 248.7,630.1 250.0,629.6 251.3,627.9 252.6,631.1 253.9,628.8 255.1,631.3 256.4,630.8 257.7,631.0 259.0,633.3 260.3,632.1 261.6,631.9 262.9,634.0 264.1,632.2 265.4,634.2 266.7,634.9 268.0,636.2 269.3,636.8 270.6,637.9 271.9,635.8 273.1,638.6 274.4,641.1 275.7,640.2 277.0,639.2 278.3,649.8 279.6,650.1 280.9,648.4 282.1,649.4 283.4,646.7 284.7,643.3 286.0,642.4 287.3,636.5 288.6,641.6 289.9,642.0 291.1,636.3 292.4,636.8 293.7,640.9 295.0,641.2 296.3,642.5 297.6,637.1 298.9,636.7 300.1,635.1 301.4,635.2 302.7,631.5 304.0,639.6"/><polyline style="stroke-width:1.5" class="l1" points="196.0,646.7 197.3,643.5 198.6,637.3 199.9,636.1 201.1,637.9 202.4,637.9 203.7,639.6 205.0,648.4 206.3,646.9 207.6,655.2 208.9,652.5 210.1,649.1 211.4,648.5 212.7,643.8 214.0,643.3 215.3,644.5 216.6,646.9 217.9,649.3 219.1,648.6 220.4,650.0 221.7,649.6 223.0,654.5 224.3,664.6 225.6,663.9 226.9,656.9 228.1,646.8 229.4,649.4 230.7,645.3 232.0,646.7 233.3,648.9 234.6,643.1 235.9,653.0 237.1,660.3 238.4,661.8 239.7,654.3 241.0,652.9 242.3,652.5 243.6,651.6 244.9,655.9 246.1,660.3 247.4,659.7 248.7,667.2 250.0,670.8 251.3,674.5 252.6,669.2 253.9,670.4 255.1,666.9 256.4,666.3 257.7,664.7 259.0,663.5 260.3,664.2 261.6,663.6 262.9,661.4 264.1,664.8 265.4,660.1 266.7,658.4 268.0,656.6 269.3,658.7 270.6,654.6 271.9,661.7 273.1,658.8 274.4,653.5 275.7,655.4 277.0,654.6 278.3,642.4 279.6,643.5 280.9,636.8 282.1,635.9 283.4,642.9 284.7,643.5 286.0,646.6 287.3,650.7 288.6,645.2 289.9,646.9 291.1,652.1 292.4,663.3 293.7,672.4 295.0,674.0 296.3,675.7 297.6,691.2 298.9,691.3 300.1,687.6 301.4,689.9 302.7,693.9 304.0,688.7"/><text x="344.0" y="606.0" class="v" text-anchor="start">2022-12-09  w=2.14‰</text><line class="g" x1="344" x2="452" y1="681.7" y2="681.7"/><text x="338.0" y="685.2" text-anchor="end">-10%</text><line class="g" x1="344" x2="452" y1="639.7" y2="639.7"/><text x="338.0" y="643.2" text-anchor="end">0%</text><line class="ax" x1="344" x2="452" y1="700" y2="700"/><polyline style="stroke-width:1.5" class="l2" points="344.0,639.7 345.3,640.5 346.6,640.8 347.9,640.4 349.1,640.2 350.4,639.9 351.7,638.9 353.0,639.7 354.3,640.9 355.6,640.2 356.9,639.6 358.1,639.9 359.4,640.2 360.7,639.7 362.0,641.9 363.3,646.0 364.6,645.9 365.9,644.3 367.1,643.7 368.4,642.9 369.7,638.9 371.0,640.3 372.3,640.0 373.6,633.1 374.9,625.6 376.1,625.9 377.4,625.1 378.7,624.9 380.0,624.3 381.3,623.9 382.6,618.1 383.9,624.7 385.1,624.4 386.4,626.2 387.7,627.1 389.0,626.4 390.3,633.5 391.6,633.2 392.9,635.3 394.1,633.6 395.4,631.7 396.7,643.4 398.0,644.7 399.3,647.3 400.6,653.0 401.9,651.9 403.1,650.2 404.4,651.2 405.7,651.3 407.0,651.6 408.3,649.5 409.6,650.3 410.9,650.1 412.1,651.1 413.4,651.7 414.7,650.1 416.0,650.4 417.3,651.8 418.6,650.8 419.9,650.5 421.1,652.1 422.4,654.9 423.7,657.7 425.0,650.7 426.3,648.8 427.6,648.6 428.9,646.0 430.1,646.5 431.4,646.6 432.7,648.0 434.0,648.5 435.3,647.0 436.6,647.4 437.9,650.0 439.1,648.3 440.4,647.6 441.7,648.3 443.0,648.1 444.3,652.9 445.6,652.3 446.9,648.4 448.1,648.2 449.4,647.7 450.7,647.8 452.0,648.1"/><polyline style="stroke-width:1.5" class="l3" points="344.0,639.7 345.3,640.8 346.6,641.0 347.9,640.6 349.1,640.6 350.4,640.5 351.7,639.7 353.0,640.2 354.3,641.2 355.6,640.8 356.9,640.6 358.1,641.3 359.4,641.5 360.7,641.2 362.0,644.2 363.3,648.3 364.6,648.7 365.9,646.9 367.1,647.0 368.4,646.0 369.7,642.5 371.0,643.9 372.3,644.3 373.6,640.8 374.9,634.6 376.1,637.4 377.4,634.6 378.7,633.8 380.0,634.1 381.3,633.6 382.6,628.3 383.9,635.9 385.1,637.6 386.4,638.0 387.7,640.3 389.0,639.0 390.3,643.1 391.6,644.3 392.9,646.9 394.1,645.6 395.4,643.9 396.7,658.4 398.0,660.8 399.3,661.8 400.6,671.2 401.9,671.0 403.1,669.0 404.4,669.3 405.7,669.4 407.0,669.9 408.3,667.7 409.6,667.8 410.9,669.1 412.1,669.0 413.4,670.1 414.7,668.9 416.0,669.1 417.3,670.0 418.6,670.0 419.9,669.2 421.1,669.9 422.4,671.9 423.7,673.3 425.0,669.5 426.3,667.7 427.6,667.4 428.9,666.7 430.1,666.9 431.4,666.5 432.7,668.1 434.0,668.0 435.3,666.9 436.6,667.3 437.9,668.8 439.1,667.6 440.4,667.3 441.7,667.7 443.0,667.3 444.3,670.8 445.6,669.9 446.9,667.2 448.1,666.8 449.4,667.6 450.7,667.7 452.0,668.3"/><polyline style="stroke-width:1.5" class="l1" points="344.0,639.7 345.3,641.2 346.6,640.9 347.9,641.1 349.1,641.1 350.4,640.8 351.7,639.4 353.0,640.5 354.3,641.2 355.6,639.5 356.9,639.2 358.1,639.9 359.4,640.3 360.7,640.1 362.0,644.4 363.3,650.3 364.6,649.9 365.9,647.8 367.1,648.6 368.4,648.1 369.7,644.1 371.0,645.7 372.3,647.2 373.6,642.0 374.9,636.7 376.1,639.7 377.4,637.1 378.7,635.4 380.0,636.1 381.3,635.8 382.6,629.7 383.9,639.0 385.1,640.9 386.4,641.2 387.7,643.3 389.0,642.1 390.3,646.5 391.6,648.8 392.9,651.1 394.1,649.8 395.4,648.2 396.7,662.8 398.0,666.2 399.3,666.7 400.6,683.8 401.9,684.0 403.1,679.9 404.4,681.2 405.7,681.2 407.0,683.1 408.3,677.5 409.6,677.7 410.9,681.3 412.1,681.3 413.4,683.5 414.7,681.2 416.0,681.8 417.3,685.4 418.6,683.4 419.9,682.4 421.1,684.3 422.4,689.0 423.7,693.9 425.0,687.5 426.3,683.8 427.6,684.4 428.9,683.3 430.1,683.8 431.4,683.2 432.7,688.3 434.0,688.4 435.3,685.9 436.6,687.0 437.9,689.5 439.1,687.6 440.4,687.1 441.7,687.5 443.0,686.1 444.3,692.0 445.6,690.1 446.9,686.2 448.1,685.1 449.4,686.9 450.7,686.9 452.0,687.4"/><text x="492.0" y="606.0" class="v" text-anchor="start">2025-02-08  w=2.14‰</text><line class="g" x1="492" x2="600" y1="696.2" y2="696.2"/><text x="486.0" y="699.7" text-anchor="end">-5%</text><line class="g" x1="492" x2="600" y1="649.9" y2="649.9"/><text x="486.0" y="653.4" text-anchor="end">0%</text><line class="ax" x1="492" x2="600" y1="700" y2="700"/><polyline style="stroke-width:1.5" class="l2" points="492.0,649.9 493.3,646.5 494.6,647.8 495.9,639.6 497.1,642.0 498.4,646.8 499.7,647.4 501.0,651.5 502.3,647.7 503.6,644.3 504.9,638.4 506.1,636.2 507.4,640.4 508.7,638.9 510.0,638.4 511.3,636.7 512.6,630.3 513.9,631.5 515.1,642.4 516.4,661.3 517.7,654.2 519.0,658.8 520.3,651.5 521.6,651.2 522.9,653.9 524.1,640.6 525.4,634.2 526.7,637.7 528.0,651.4 529.3,652.8 530.6,652.1 531.9,655.7 533.1,646.3 534.4,641.2 535.7,643.0 537.0,643.6 538.3,643.2 539.6,633.5 540.9,637.7 542.1,636.2 543.4,639.2 544.7,636.6 546.0,636.4 547.3,637.4 548.6,637.0 549.9,637.2 551.1,640.1 552.4,639.3 553.7,643.3 555.0,641.9 556.3,651.0 557.6,650.0 558.9,651.5 560.1,651.5 561.4,655.4 562.7,656.6 564.0,654.2 565.3,650.2 566.6,657.3 567.9,655.5 569.1,656.4 570.4,670.3 571.7,655.2 573.0,654.9 574.3,655.1 575.6,648.0 576.9,652.6 578.1,650.1 579.4,645.9 580.7,641.9 582.0,643.7 583.3,640.5 584.6,643.4 585.9,628.8 587.1,629.9 588.4,631.5 589.7,631.1 591.0,626.8 592.3,631.9 593.6,659.0 594.9,650.4 596.1,649.2 597.4,649.3 598.7,646.5 600.0,646.4"/><polyline style="stroke-width:1.5" class="l3" points="492.0,649.9 493.3,645.7 494.6,646.6 495.9,638.7 497.1,638.9 498.4,642.4 499.7,642.3 501.0,647.7 502.3,645.8 503.6,643.7 504.9,637.0 506.1,634.1 507.4,636.3 508.7,633.8 510.0,632.4 511.3,627.4 512.6,619.8 513.9,620.6 515.1,628.8 516.4,641.4 517.7,635.8 519.0,641.9 520.3,639.4 521.6,635.0 522.9,638.3 524.1,618.1 525.4,618.9 526.7,618.6 528.0,621.7 529.3,622.7 530.6,623.7 531.9,627.5 533.1,627.6 534.4,624.7 535.7,629.5 537.0,628.8 538.3,628.6 539.6,622.5 540.9,627.2 542.1,624.5 543.4,627.9 544.7,626.3 546.0,626.3 547.3,628.8 548.6,627.5 549.9,627.5 551.1,630.7 552.4,628.8 553.7,632.3 555.0,632.2 556.3,636.5 557.6,637.1 558.9,638.0 560.1,636.2 561.4,638.6 562.7,640.8 564.0,640.1 565.3,639.2 566.6,648.4 567.9,647.9 569.1,647.2 570.4,648.1 571.7,645.7 573.0,642.0 574.3,635.7 575.6,633.2 576.9,635.7 578.1,635.4 579.4,630.3 580.7,635.1 582.0,638.7 583.3,637.7 584.6,638.9 585.9,630.2 587.1,629.9 588.4,629.2 589.7,628.6 591.0,625.4 592.3,632.5 593.6,650.1 594.9,647.0 596.1,646.3 597.4,646.4 598.7,643.7 600.0,644.8"/><polyline style="stroke-width:1.5" class="l1" points="492.0,649.9 493.3,654.1 494.6,653.3 495.9,660.2 497.1,657.9 498.4,655.0 499.7,654.4 501.0,650.3 502.3,649.9 503.6,650.9 504.9,653.1 506.1,655.2 507.4,654.5 508.7,655.7 510.0,655.4 511.3,659.6 512.6,668.4 513.9,667.8 515.1,661.7 516.4,652.9 517.7,655.2 519.0,651.6 520.3,652.9 521.6,654.8 522.9,649.7 524.1,658.3 525.4,664.7 526.7,666.0 528.0,659.5 529.3,658.3 530.6,657.9 531.9,657.1 533.1,660.8 534.4,664.7 535.7,664.2 537.0,670.7 538.3,673.8 539.6,677.0 540.9,672.4 542.1,673.4 543.4,670.4 544.7,669.9 546.0,668.5 547.3,667.4 548.6,668.0 549.9,667.6 551.1,665.6 552.4,668.6 553.7,664.5 555.0,663.0 556.3,661.4 557.6,663.2 558.9,659.7 560.1,665.9 561.4,663.4 562.7,658.8 564.0,660.4 565.3,659.7 566.6,649.1 567.9,650.0 569.1,644.2 570.4,643.5 571.7,649.5 573.0,650.1 574.3,652.8 575.6,656.3 576.9,651.5 578.1,653.0 579.4,657.6 580.7,667.3 582.0,675.2 583.3,676.6 584.6,678.1 585.9,691.6 587.1,691.6 588.4,688.4 589.7,690.4 591.0,693.9 592.3,689.4 593.6,677.3 594.9,681.4 596.1,682.3 597.4,682.8 598.7,686.0 600.0,688.8"/><text x="640.0" y="606.0" class="v" text-anchor="start">2026-05-01  w=2.13‰</text><line class="g" x1="640" x2="748" y1="687.5" y2="687.5"/><text x="634.0" y="691.0" text-anchor="end">0%</text><line class="g" x1="640" x2="748" y1="646.4" y2="646.4"/><text x="634.0" y="649.9" text-anchor="end">10%</text><line class="ax" x1="640" x2="748" y1="700" y2="700"/><polyline style="stroke-width:1.5" class="l2" points="640.0,687.5 641.3,687.1 642.6,687.8 643.9,686.9 645.1,687.8 646.4,688.2 647.7,686.4 649.0,686.4 650.3,685.4 651.6,687.9 652.9,687.1 654.1,685.6 655.4,685.5 656.7,685.0 658.0,686.0 659.3,676.9 660.6,680.1 661.9,684.8 663.1,678.4 664.4,678.2 665.7,679.2 667.0,673.8 668.3,674.0 669.6,673.2 670.9,670.5 672.1,670.1 673.4,673.8 674.7,670.2 676.0,671.4 677.3,665.3 678.6,669.6 679.9,670.8 681.1,670.9 682.4,674.2 683.7,670.6 685.0,674.0 686.3,679.1 687.6,677.7 688.9,678.5 690.1,680.7 691.4,680.2 692.7,677.3 694.0,677.8 695.3,677.6 696.6,677.5 697.9,676.5 699.1,677.3 700.4,676.7 701.7,675.8 703.0,673.6 704.3,675.0 705.6,674.5 706.9,674.7 708.1,674.2 709.4,671.1 710.7,671.0 712.0,667.0 713.3,674.7 714.6,674.7 715.9,672.3 717.1,671.0 718.4,668.3 719.7,669.4 721.0,673.0 722.3,674.0 723.6,674.4 724.9,676.8 726.1,674.2 727.4,675.9 728.7,672.0 730.0,673.2 731.3,675.9 732.6,684.7 733.9,680.4 735.1,682.1 736.4,683.5 737.7,679.9 739.0,682.4 740.3,671.7 741.6,671.1 742.9,672.8 744.1,673.0 745.4,674.3 746.7,675.2 748.0,683.0"/><polyline style="stroke-width:1.5" class="l3" points="640.0,687.5 641.3,687.0 642.6,688.7 643.9,687.1 645.1,687.9 646.4,687.9 647.7,684.3 649.0,682.2 650.3,682.5 651.6,685.4 652.9,684.6 654.1,683.1 655.4,681.8 656.7,680.6 658.0,681.3 659.3,673.6 660.6,676.5 661.9,681.1 663.1,678.2 664.4,677.9 665.7,679.1 667.0,673.8 668.3,673.5 669.6,672.1 670.9,670.1 672.1,668.6 673.4,666.8 674.7,663.4 676.0,658.6 677.3,652.5 678.6,655.6 679.9,658.3 681.1,658.6 682.4,664.6 683.7,657.3 685.0,657.7 686.3,662.9 687.6,663.5 688.9,663.1 690.1,663.4 691.4,660.5 692.7,659.9 694.0,656.4 695.3,654.3 696.6,650.0 697.9,649.3 699.1,650.0 700.4,650.6 701.7,654.0 703.0,652.1 704.3,654.1 705.6,653.9 706.9,653.2 708.1,652.4 709.4,650.6 710.7,644.8 712.0,649.1 713.3,653.3 714.6,654.0 715.9,653.8 717.1,654.5 718.4,652.4 719.7,654.8 721.0,657.4 722.3,657.6 723.6,662.4 724.9,666.9 726.1,662.7 727.4,662.3 728.7,656.9 730.0,661.1 731.3,663.5 732.6,671.4 733.9,670.3 735.1,670.1 736.4,672.7 737.7,670.7 739.0,671.3 740.3,663.0 741.6,665.0 742.9,665.5 744.1,666.7 745.4,668.5 746.7,670.7 748.0,677.3"/><polyline style="stroke-width:1.5" class="l1" points="640.0,687.5 641.3,687.9 642.6,693.9 643.9,689.6 645.1,679.5 646.4,674.3 647.7,662.6 649.0,657.6 650.3,661.2 651.6,668.2 652.9,669.4 654.1,663.8 655.4,661.1 656.7,653.5 658.0,656.0 659.3,646.2 660.6,650.2 661.9,658.9 663.1,658.2 664.4,657.4 665.7,658.6 667.0,653.3 668.3,652.3 669.6,649.4 670.9,647.5 672.1,642.8 673.4,634.4 674.7,633.7 676.0,622.0 677.3,618.1 678.6,622.4 679.9,631.2 681.1,632.2 682.4,644.8 683.7,633.8 685.0,629.8 686.3,641.8 687.6,643.4 688.9,643.6 690.1,643.2 691.4,641.6 692.7,640.5 694.0,635.9 695.3,630.4 696.6,619.4 697.9,619.9 699.1,620.5 700.4,626.6 701.7,634.7 703.0,631.0 704.3,635.7 705.6,634.4 706.9,635.6 708.1,634.1 709.4,632.3 710.7,622.3 712.0,626.7 713.3,629.3 714.6,633.5 715.9,633.9 717.1,633.6 718.4,629.9 719.7,633.7 721.0,636.3 722.3,637.1 723.6,645.9 724.9,653.6 726.1,647.2 727.4,647.6 728.7,639.2 730.0,646.4 731.3,649.9 732.6,663.4 733.9,661.2 735.1,660.5 736.4,665.0 737.7,661.2 739.0,662.4 740.3,648.7 741.6,651.4 742.9,652.7 744.1,654.8 745.4,658.8 746.7,661.9 748.0,674.3"/></svg>
