<svg xmlns="http://www.w3.org/2000/svg" width="720" height="290" viewBox="0 0 720 290" role="img"><style>
svg{--surface:#fcfcfb;--ink:#0b0b0b;--ink2:#52514e;--grid:#e4e3df;--axis:#a3a29d;--s1:#2a78d6;--s2:#eb6834;--s3:#1baf7a;--none:#d6d5d0}
@media (prefers-color-scheme: dark){svg{--surface:#1a1a19;--ink:#ffffff;--ink2:#c3c2b7;--grid:#33332f;--axis:#6b6a65;--s1:#3987e5;--s2:#d95926;--s3:#199e70;--none:#4a4945}}
text{font-family:system-ui,-apple-system,"Segoe UI",Roboto,sans-serif;font-size:11px;fill:var(--ink2)}
.t{fill:var(--ink);font-size:14px;font-weight:600}.st{font-size:11.5px}.v{fill:var(--ink)}
.g{stroke:var(--grid);stroke-width:1}.ax{stroke:var(--axis);stroke-width:1}
.l1,.l2,.l3{fill:none;stroke-width:2;stroke-linejoin:round;stroke-linecap:round}
.l1{stroke:var(--s1)}.l2{stroke:var(--s2)}.l3{stroke:var(--s3)}
.f1{fill:var(--s1)}.f2{fill:var(--s2)}.f3{fill:var(--s3)}.f0{fill:var(--none)}
.ring{stroke:var(--surface);stroke-width:2}.bg{fill:var(--surface)}
</style><rect class="bg" width="720" height="290" rx="6"/><text x="16.0" y="24.0" class="t" text-anchor="start">team_cash: 14-day return R, weighted by the final weights w&#x27;</text><text x="16.0" y="42.0" class="st" text-anchor="start">2298 windows; bar = weighted share; outliers are clipped into the end bins</text><line class="g" x1="70" x2="690" y1="240.0" y2="240.0"/><text x="64.0" y="243.5" text-anchor="end">0%</text><line class="g" x1="70" x2="690" y1="194.6" y2="194.6"/><text x="64.0" y="198.1" text-anchor="end">20%</text><line class="g" x1="70" x2="690" y1="149.3" y2="149.3"/><text x="64.0" y="152.8" text-anchor="end">40%</text><line class="g" x1="70" x2="690" y1="103.9" y2="103.9"/><text x="64.0" y="107.4" text-anchor="end">60%</text><text x="121.7" y="255.0" text-anchor="middle">-5%</text><text x="250.8" y="255.0" text-anchor="middle">-2%</text><text x="380.0" y="255.0" text-anchor="middle">0%</text><text x="509.2" y="255.0" text-anchor="middle">2%</text><text x="638.3" y="255.0" text-anchor="middle">5%</text><line class="ax" x1="70" x2="690" y1="240" y2="240"/><text x="380.0" y="271.0" text-anchor="middle">R (mark-to-market)</text><path class="f1" d="M365.5,240.0 V89.2 Q365.5,85.2 369.5,85.2 H375.0 Q379.0,85.2 379.0,89.2 V240.0 Z"/><path class="f1" d="M381.0,240.0 V171.9 Q381.0,167.9 385.0,167.9 H390.5 Q394.5,167.9 394.5,171.9 V240.0 Z"/><line class="ax" stroke-dasharray="4 3" x1="379.7" x2="379.7" y1="62" y2="240"/><text x="383.7" y="72.0" class="v" text-anchor="start">team_cash weighted median -0.01%</text><line class="ax" stroke-dasharray="4 3" x1="398.7" x2="398.7" y1="62" y2="240"/><text x="402.7" y="85.0" class="v" text-anchor="start">BTC_HOLD weighted median +0.36%</text></svg>
