<svg xmlns="http://www.w3.org/2000/svg" width="720" height="300" viewBox="0 0 720 300" role="img"><style>
svg{--surface:#fcfcfb;--ink:#0b0b0b;--ink2:#52514e;--grid:#e4e3df;--axis:#a3a29d;--s1:#2a78d6;--s2:#eb6834;--s3:#1baf7a;--none:#d6d5d0}
@media (prefers-color-scheme: dark){svg{--surface:#1a1a19;--ink:#ffffff;--ink2:#c3c2b7;--grid:#33332f;--axis:#6b6a65;--s1:#3987e5;--s2:#d95926;--s3:#199e70;--none:#4a4945}}
text{font-family:system-ui,-apple-system,"Segoe UI",Roboto,sans-serif;font-size:11px;fill:var(--ink2)}
.t{fill:var(--ink);font-size:14px;font-weight:600}.st{font-size:11.5px}.v{fill:var(--ink)}
.g{stroke:var(--grid);stroke-width:1}.ax{stroke:var(--axis);stroke-width:1}
.l1,.l2,.l3{fill:none;stroke-width:2;stroke-linejoin:round;stroke-linecap:round}
.l1{stroke:var(--s1)}.l2{stroke:var(--s2)}.l3{stroke:var(--s3)}
.f1{fill:var(--s1)}.f2{fill:var(--s2)}.f3{fill:var(--s3)}.f0{fill:var(--none)}
.ring{stroke:var(--surface);stroke-width:2}.bg{fill:var(--surface)}
</style><rect class="bg" width="720" height="300" rx="6"/><text x="16.0" y="24.0" class="t" text-anchor="start">pol_combo_ms_tl: cumulative trading costs</text><text x="16.0" y="42.0" class="st" text-anchor="start">Weighted mean over windows, share of the starting equity E_0</text><line class="g" x1="70" x2="610" y1="241.1" y2="241.1"/><text x="64.0" y="244.6" text-anchor="end">0.00%</text><line class="g" x1="70" x2="610" y1="181.4" y2="181.4"/><text x="64.0" y="184.9" text-anchor="end">0.20%</text><line class="g" x1="70" x2="610" y1="121.6" y2="121.6"/><text x="64.0" y="125.1" text-anchor="end">0.40%</text><text x="70.0" y="265.0" text-anchor="middle">0</text><text x="147.1" y="265.0" text-anchor="middle">2</text><text x="224.3" y="265.0" text-anchor="middle">4</text><text x="301.4" y="265.0" text-anchor="middle">6</text><text x="378.6" y="265.0" text-anchor="middle">8</text><text x="455.7" y="265.0" text-anchor="middle">10</text><text x="532.9" y="265.0" text-anchor="middle">12</text><text x="610.0" y="265.0" text-anchor="middle">14</text><line class="ax" x1="70" x2="610" y1="250" y2="250"/><text x="340.0" y="281.0" text-anchor="middle">day of the window</text><polyline class="l1" points="70.0,241.1 76.4,222.0 82.9,222.0 89.3,222.0 95.7,222.0 102.1,222.0 108.6,222.0 115.0,212.8 121.4,212.8 127.9,212.8 134.3,212.8 140.7,212.8 147.1,212.7 153.6,203.4 160.0,203.4 166.4,203.4 172.9,203.4 179.3,203.4 185.7,203.3 192.1,194.0 198.6,194.0 205.0,194.0 211.4,194.0 217.9,194.0 224.3,193.8 230.7,184.4 237.1,184.4 243.6,184.4 250.0,184.4 256.4,184.4 262.9,184.2 269.3,174.6 275.7,174.6 282.1,174.6 288.6,174.6 295.0,174.6 301.4,174.4 307.9,164.7 314.3,164.7 320.7,164.7 327.1,164.7 333.6,164.7 340.0,164.6 346.4,154.9 352.9,154.9 359.3,154.9 365.7,154.9 372.1,154.9 378.6,154.7 385.0,144.9 391.4,144.9 397.9,144.9 404.3,144.9 410.7,144.9 417.1,144.7 423.6,134.7 430.0,134.7 436.4,134.7 442.9,134.7 449.3,134.7 455.7,134.5 462.1,124.5 468.6,124.5 475.0,124.5 481.4,124.5 487.9,124.5 494.3,124.3 500.7,114.2 507.1,114.2 513.6,114.2 520.0,114.2 526.4,114.2 532.9,114.0 539.3,103.8 545.7,103.8 552.1,103.8 558.6,103.8 565.0,103.8 571.4,103.5 577.9,93.2 584.3,93.2 590.7,93.2 597.1,93.2 603.6,93.2 610.0,92.9"/><text x="616.0" y="96.9" class="v" text-anchor="start">exchange fees</text><polyline class="l2" points="70.0,241.1 76.4,238.4 82.9,238.4 89.3,238.4 95.7,238.4 102.1,238.4 108.6,238.4 115.0,237.2 121.4,237.2 127.9,237.2 134.3,237.2 140.7,237.2 147.1,237.2 153.6,235.9 160.0,235.9 166.4,235.9 172.9,235.9 179.3,235.9 185.7,235.9 192.1,234.7 198.6,234.7 205.0,234.7 211.4,234.7 217.9,234.7 224.3,234.7 230.7,233.4 237.1,233.4 243.6,233.4 250.0,233.4 256.4,233.4 262.9,233.4 269.3,232.1 275.7,232.1 282.1,232.1 288.6,232.1 295.0,232.1 301.4,232.1 307.9,230.7 314.3,230.7 320.7,230.7 327.1,230.7 333.6,230.7 340.0,230.7 346.4,229.4 352.9,229.4 359.3,229.4 365.7,229.4 372.1,229.4 378.6,229.3 385.0,228.0 391.4,228.0 397.9,228.0 404.3,228.0 410.7,228.0 417.1,228.0 423.6,226.6 430.0,226.6 436.4,226.6 442.9,226.6 449.3,226.6 455.7,226.6 462.1,225.2 468.6,225.2 475.0,225.2 481.4,225.2 487.9,225.2 494.3,225.2 500.7,223.8 507.1,223.8 513.6,223.8 520.0,223.8 526.4,223.8 532.9,223.8 539.3,222.4 545.7,222.4 552.1,222.4 558.6,222.4 565.0,222.4 571.4,222.4 577.9,220.9 584.3,220.9 590.7,220.9 597.1,220.9 603.6,220.9 610.0,220.9"/><text x="616.0" y="224.9" class="v" text-anchor="start">spread</text><rect x="70.0" y="54.0" width="14" height="4" rx="2" class="f1"/><text x="89.0" y="59.0" text-anchor="start">exchange fees</text><rect x="180.5" y="54.0" width="14" height="4" rx="2" class="f2"/><text x="199.5" y="59.0" text-anchor="start">spread</text></svg>
