<svg xmlns="http://www.w3.org/2000/svg" width="720" height="290" viewBox="0 0 720 290" role="img"><style>
svg{--surface:#fcfcfb;--ink:#0b0b0b;--ink2:#52514e;--grid:#e4e3df;--axis:#a3a29d;--s1:#2a78d6;--s2:#eb6834;--s3:#1baf7a;--none:#d6d5d0}
@media (prefers-color-scheme: dark){svg{--surface:#1a1a19;--ink:#ffffff;--ink2:#c3c2b7;--grid:#33332f;--axis:#6b6a65;--s1:#3987e5;--s2:#d95926;--s3:#199e70;--none:#4a4945}}
text{font-family:system-ui,-apple-system,"Segoe UI",Roboto,sans-serif;font-size:11px;fill:var(--ink2)}
.t{fill:var(--ink);font-size:14px;font-weight:600}.st{font-size:11.5px}.v{fill:var(--ink)}
.g{stroke:var(--grid);stroke-width:1}.ax{stroke:var(--axis);stroke-width:1}
.l1,.l2,.l3{fill:none;stroke-width:2;stroke-linejoin:round;stroke-linecap:round}
.l1{stroke:var(--s1)}.l2{stroke:var(--s2)}.l3{stroke:var(--s3)}
.f1{fill:var(--s1)}.f2{fill:var(--s2)}.f3{fill:var(--s3)}.f0{fill:var(--none)}
.ring{stroke:var(--surface);stroke-width:2}.bg{fill:var(--surface)}
</style><rect class="bg" width="720" height="290" rx="6"/><text x="16.0" y="24.0" class="t" text-anchor="start">pol_combo_all: 14-day return R, weighted by live-likeness</text><text x="16.0" y="42.0" class="st" text-anchor="start">2245 windows; bar = weighted share; outliers are clipped into the end bins</text><line class="g" x1="70" x2="690" y1="240.0" y2="240.0"/><text x="64.0" y="243.5" text-anchor="end">0%</text><line class="g" x1="70" x2="690" y1="172.2" y2="172.2"/><text x="64.0" y="175.7" text-anchor="end">5%</text><line class="g" x1="70" x2="690" y1="104.3" y2="104.3"/><text x="64.0" y="107.8" text-anchor="end">10%</text><text x="169.2" y="255.0" text-anchor="middle">-10%</text><text x="293.2" y="255.0" text-anchor="middle">0%</text><text x="417.2" y="255.0" text-anchor="middle">10%</text><text x="541.2" y="255.0" text-anchor="middle">20%</text><text x="665.2" y="255.0" text-anchor="middle">30%</text><line class="ax" x1="70" x2="690" y1="240" y2="240"/><text x="380.0" y="271.0" text-anchor="middle">R (mark-to-market)</text><path class="f1" d="M71.0,240.0 V240.0 Q71.0,239.0 72.0,239.0 H83.5 Q84.5,239.0 84.5,240.0 V240.0 Z"/><path class="f1" d="M86.5,240.0 V240.0 Q86.5,239.7 86.8,239.7 H99.7 Q100.0,239.7 100.0,240.0 V240.0 Z"/><path class="f1" d="M102.0,240.0 V240.0 Q102.0,238.0 104.0,238.0 H113.5 Q115.5,238.0 115.5,240.0 V240.0 Z"/><path class="f1" d="M117.5,240.0 V240.0 Q117.5,236.6 120.9,236.6 H127.6 Q131.0,236.6 131.0,240.0 V240.0 Z"/><path class="f1" d="M133.0,240.0 V233.7 Q133.0,229.7 137.0,229.7 H142.5 Q146.5,229.7 146.5,233.7 V240.0 Z"/><path class="f1" d="M148.5,240.0 V225.1 Q148.5,221.1 152.5,221.1 H158.0 Q162.0,221.1 162.0,225.1 V240.0 Z"/><path class="f1" d="M164.0,240.0 V211.2 Q164.0,207.2 168.0,207.2 H173.5 Q177.5,207.2 177.5,211.2 V240.0 Z"/><path class="f1" d="M179.5,240.0 V207.8 Q179.5,203.8 183.5,203.8 H189.0 Q193.0,203.8 193.0,207.8 V240.0 Z"/><path class="f1" d="M195.0,240.0 V193.8 Q195.0,189.8 199.0,189.8 H204.5 Q208.5,189.8 208.5,193.8 V240.0 Z"/><path class="f1" d="M210.5,240.0 V159.0 Q210.5,155.0 214.5,155.0 H220.0 Q224.0,155.0 224.0,159.0 V240.0 Z"/><path class="f1" d="M226.0,240.0 V145.5 Q226.0,141.5 230.0,141.5 H235.5 Q239.5,141.5 239.5,145.5 V240.0 Z"/><path class="f1" d="M241.5,240.0 V135.0 Q241.5,131.0 245.5,131.0 H251.0 Q255.0,131.0 255.0,135.0 V240.0 Z"/><path class="f1" d="M257.0,240.0 V103.7 Q257.0,99.7 261.0,99.7 H266.5 Q270.5,99.7 270.5,103.7 V240.0 Z"/><path class="f1" d="M272.5,240.0 V114.3 Q272.5,110.3 276.5,110.3 H282.0 Q286.0,110.3 286.0,114.3 V240.0 Z"/><path class="f1" d="M288.0,240.0 V89.2 Q288.0,85.2 292.0,85.2 H297.5 Q301.5,85.2 301.5,89.2 V240.0 Z"/><path class="f1" d="M303.5,240.0 V90.8 Q303.5,86.8 307.5,86.8 H313.0 Q317.0,86.8 317.0,90.8 V240.0 Z"/><path class="f1" d="M319.0,240.0 V156.8 Q319.0,152.8 323.0,152.8 H328.5 Q332.5,152.8 332.5,156.8 V240.0 Z"/><path class="f1" d="M334.5,240.0 V165.8 Q334.5,161.8 338.5,161.8 H344.0 Q348.0,161.8 348.0,165.8 V240.0 Z"/><path class="f1" d="M350.0,240.0 V195.5 Q350.0,191.5 354.0,191.5 H359.5 Q363.5,191.5 363.5,195.5 V240.0 Z"/><path class="f1" d="M365.5,240.0 V203.7 Q365.5,199.7 369.5,199.7 H375.0 Q379.0,199.7 379.0,203.7 V240.0 Z"/><path class="f1" d="M381.0,240.0 V225.5 Q381.0,221.5 385.0,221.5 H390.5 Q394.5,221.5 394.5,225.5 V240.0 Z"/><path class="f1" d="M396.5,240.0 V228.5 Q396.5,224.5 400.5,224.5 H406.0 Q410.0,224.5 410.0,228.5 V240.0 Z"/><path class="f1" d="M412.0,240.0 V233.4 Q412.0,229.4 416.0,229.4 H421.5 Q425.5,229.4 425.5,233.4 V240.0 Z"/><path class="f1" d="M427.5,240.0 V232.7 Q427.5,228.7 431.5,228.7 H437.0 Q441.0,228.7 441.0,232.7 V240.0 Z"/><path class="f1" d="M443.0,240.0 V235.4 Q443.0,231.4 447.0,231.4 H452.5 Q456.5,231.4 456.5,235.4 V240.0 Z"/><path class="f1" d="M458.5,240.0 V240.0 Q458.5,236.8 461.7,236.8 H468.8 Q472.0,236.8 472.0,240.0 V240.0 Z"/><path class="f1" d="M474.0,240.0 V239.3 Q474.0,235.3 478.0,235.3 H483.5 Q487.5,235.3 487.5,239.3 V240.0 Z"/><path class="f1" d="M489.5,240.0 V240.0 Q489.5,238.5 491.0,238.5 H501.5 Q503.0,238.5 503.0,240.0 V240.0 Z"/><path class="f1" d="M505.0,240.0 V240.0 Q505.0,238.8 506.2,238.8 H517.3 Q518.5,238.8 518.5,240.0 V240.0 Z"/><path class="f1" d="M520.5,240.0 V240.0 Q520.5,239.2 521.3,239.2 H533.2 Q534.0,239.2 534.0,240.0 V240.0 Z"/><path class="f1" d="M536.0,240.0 V240.0 Q536.0,239.7 536.3,239.7 H549.2 Q549.5,239.7 549.5,240.0 V240.0 Z"/><path class="f1" d="M551.5,240.0 V240.0 Q551.5,239.5 552.0,239.5 H564.5 Q565.0,239.5 565.0,240.0 V240.0 Z"/><path class="f1" d="M567.0,240.0 V240.0 Q567.0,239.9 567.1,239.9 H580.4 Q580.5,239.9 580.5,240.0 V240.0 Z"/><path class="f1" d="M582.5,240.0 V240.0 Q582.5,240.0 582.5,240.0 H596.0 Q596.0,240.0 596.0,240.0 V240.0 Z"/><path class="f1" d="M598.0,240.0 V240.0 Q598.0,240.0 598.0,240.0 H611.5 Q611.5,240.0 611.5,240.0 V240.0 Z"/><path class="f1" d="M613.5,240.0 V240.0 Q613.5,240.0 613.5,240.0 H627.0 Q627.0,240.0 627.0,240.0 V240.0 Z"/><path class="f1" d="M629.0,240.0 V240.0 Q629.0,240.0 629.0,240.0 H642.5 Q642.5,240.0 642.5,240.0 V240.0 Z"/><path class="f1" d="M644.5,240.0 V240.0 Q644.5,240.0 644.5,240.0 H658.0 Q658.0,240.0 658.0,240.0 V240.0 Z"/><path class="f1" d="M660.0,240.0 V240.0 Q660.0,240.0 660.0,240.0 H673.5 Q673.5,240.0 673.5,240.0 V240.0 Z"/><path class="f1" d="M675.5,240.0 V240.0 Q675.5,240.0 675.5,240.0 H689.0 Q689.0,240.0 689.0,240.0 V240.0 Z"/><line class="ax" stroke-dasharray="4 3" x1="282.4" x2="282.4" y1="62" y2="240"/><text x="286.4" y="72.0" class="v" text-anchor="start">pol_combo_all weighted median -0.87%</text><line class="ax" stroke-dasharray="4 3" x1="287.3" x2="287.3" y1="62" y2="240"/><text x="291.3" y="85.0" class="v" text-anchor="start">BTC_HOLD weighted median -0.48%</text></svg>
