<svg xmlns="http://www.w3.org/2000/svg" width="720" height="300" viewBox="0 0 720 300" role="img"><style>
svg{--surface:#fcfcfb;--ink:#0b0b0b;--ink2:#52514e;--grid:#e4e3df;--axis:#a3a29d;--s1:#2a78d6;--s2:#eb6834;--s3:#1baf7a;--none:#d6d5d0}
@media (prefers-color-scheme: dark){svg{--surface:#1a1a19;--ink:#ffffff;--ink2:#c3c2b7;--grid:#33332f;--axis:#6b6a65;--s1:#3987e5;--s2:#d95926;--s3:#199e70;--none:#4a4945}}
text{font-family:system-ui,-apple-system,"Segoe UI",Roboto,sans-serif;font-size:11px;fill:var(--ink2)}
.t{fill:var(--ink);font-size:14px;font-weight:600}.st{font-size:11.5px}.v{fill:var(--ink)}
.g{stroke:var(--grid);stroke-width:1}.ax{stroke:var(--axis);stroke-width:1}
.l1,.l2,.l3{fill:none;stroke-width:2;stroke-linejoin:round;stroke-linecap:round}
.l1{stroke:var(--s1)}.l2{stroke:var(--s2)}.l3{stroke:var(--s3)}
.f1{fill:var(--s1)}.f2{fill:var(--s2)}.f3{fill:var(--s3)}.f0{fill:var(--none)}
.ring{stroke:var(--surface);stroke-width:2}.bg{fill:var(--surface)}
</style><rect class="bg" width="720" height="300" rx="6"/><text x="16.0" y="24.0" class="t" text-anchor="start">pol_combo_rt: cumulative trading costs</text><text x="16.0" y="42.0" class="st" text-anchor="start">Weighted mean over windows, share of the starting equity E_0</text><line class="g" x1="70" x2="610" y1="241.1" y2="241.1"/><text x="64.0" y="244.6" text-anchor="end">0.00%</text><line class="g" x1="70" x2="610" y1="197.2" y2="197.2"/><text x="64.0" y="200.7" text-anchor="end">0.20%</text><line class="g" x1="70" x2="610" y1="153.3" y2="153.3"/><text x="64.0" y="156.8" text-anchor="end">0.40%</text><line class="g" x1="70" x2="610" y1="109.4" y2="109.4"/><text x="64.0" y="112.9" text-anchor="end">0.60%</text><text x="70.0" y="265.0" text-anchor="middle">0</text><text x="147.1" y="265.0" text-anchor="middle">2</text><text x="224.3" y="265.0" text-anchor="middle">4</text><text x="301.4" y="265.0" text-anchor="middle">6</text><text x="378.6" y="265.0" text-anchor="middle">8</text><text x="455.7" y="265.0" text-anchor="middle">10</text><text x="532.9" y="265.0" text-anchor="middle">12</text><text x="610.0" y="265.0" text-anchor="middle">14</text><line class="ax" x1="70" x2="610" y1="250" y2="250"/><text x="340.0" y="281.0" text-anchor="middle">day of the window</text><polyline class="l1" points="70.0,241.1 76.4,224.1 82.9,219.3 89.3,219.3 95.7,218.2 102.1,218.2 108.6,218.2 115.0,218.2 121.4,210.2 127.9,210.2 134.3,208.7 140.7,208.7 147.1,208.7 153.6,208.7 160.0,200.5 166.4,200.5 172.9,199.1 179.3,199.1 185.7,199.1 192.1,199.1 198.6,190.7 205.0,190.7 211.4,189.2 217.9,189.2 224.3,189.2 230.7,189.2 237.1,181.1 243.6,181.1 250.0,179.6 256.4,179.6 262.9,179.6 269.3,179.6 275.7,171.4 282.1,171.4 288.6,170.0 295.0,170.0 301.4,170.0 307.9,170.0 314.3,161.8 320.7,161.8 327.1,160.4 333.6,160.4 340.0,160.4 346.4,160.4 352.9,152.2 359.3,152.2 365.7,150.8 372.1,150.8 378.6,150.8 385.0,150.8 391.4,142.6 397.9,142.6 404.3,141.2 410.7,141.2 417.1,141.2 423.6,141.2 430.0,133.1 436.4,133.1 442.9,131.6 449.3,131.6 455.7,131.6 462.1,131.6 468.6,123.4 475.0,123.4 481.4,121.9 487.9,121.9 494.3,121.9 500.7,121.9 507.1,113.7 513.6,113.7 520.0,112.3 526.4,112.3 532.9,112.3 539.3,112.3 545.7,104.0 552.1,104.0 558.6,102.6 565.0,102.6 571.4,102.6 577.9,102.6 584.3,94.3 590.7,94.3 597.1,92.9 603.6,92.9 610.0,92.9"/><text x="616.0" y="96.9" class="v" text-anchor="start">exchange fees</text><polyline class="l2" points="70.0,241.1 76.4,238.9 82.9,238.2 89.3,238.2 95.7,238.1 102.1,238.1 108.6,238.1 115.0,238.1 121.4,237.0 127.9,237.0 134.3,236.8 140.7,236.8 147.1,236.8 153.6,236.8 160.0,235.7 166.4,235.7 172.9,235.5 179.3,235.5 185.7,235.5 192.1,235.5 198.6,234.3 205.0,234.3 211.4,234.1 217.9,234.1 224.3,234.1 230.7,234.1 237.1,233.0 243.6,233.0 250.0,232.8 256.4,232.8 262.9,232.8 269.3,232.8 275.7,231.7 282.1,231.7 288.6,231.5 295.0,231.5 301.4,231.5 307.9,231.5 314.3,230.3 320.7,230.3 327.1,230.1 333.6,230.1 340.0,230.1 346.4,230.1 352.9,229.0 359.3,229.0 365.7,228.7 372.1,228.7 378.6,228.7 385.0,228.7 391.4,227.6 397.9,227.6 404.3,227.4 410.7,227.4 417.1,227.4 423.6,227.4 430.0,226.2 436.4,226.2 442.9,226.0 449.3,226.0 455.7,226.0 462.1,226.0 468.6,224.8 475.0,224.8 481.4,224.5 487.9,224.5 494.3,224.5 500.7,224.5 507.1,223.3 513.6,223.3 520.0,223.1 526.4,223.1 532.9,223.1 539.3,223.1 545.7,221.9 552.1,221.9 558.6,221.7 565.0,221.7 571.4,221.7 577.9,221.7 584.3,220.5 590.7,220.5 597.1,220.2 603.6,220.2 610.0,220.2"/><text x="616.0" y="224.2" class="v" text-anchor="start">spread</text><rect x="70.0" y="54.0" width="14" height="4" rx="2" class="f1"/><text x="89.0" y="59.0" text-anchor="start">exchange fees</text><rect x="180.5" y="54.0" width="14" height="4" rx="2" class="f2"/><text x="199.5" y="59.0" text-anchor="start">spread</text></svg>
