<svg xmlns="http://www.w3.org/2000/svg" width="720" height="290" viewBox="0 0 720 290" role="img"><style>
svg{--surface:#fcfcfb;--ink:#0b0b0b;--ink2:#52514e;--grid:#e4e3df;--axis:#a3a29d;--s1:#2a78d6;--s2:#eb6834;--s3:#1baf7a;--none:#d6d5d0}
@media (prefers-color-scheme: dark){svg{--surface:#1a1a19;--ink:#ffffff;--ink2:#c3c2b7;--grid:#33332f;--axis:#6b6a65;--s1:#3987e5;--s2:#d95926;--s3:#199e70;--none:#4a4945}}
text{font-family:system-ui,-apple-system,"Segoe UI",Roboto,sans-serif;font-size:11px;fill:var(--ink2)}
.t{fill:var(--ink);font-size:14px;font-weight:600}.st{font-size:11.5px}.v{fill:var(--ink)}
.g{stroke:var(--grid);stroke-width:1}.ax{stroke:var(--axis);stroke-width:1}
.l1,.l2,.l3{fill:none;stroke-width:2;stroke-linejoin:round;stroke-linecap:round}
.l1{stroke:var(--s1)}.l2{stroke:var(--s2)}.l3{stroke:var(--s3)}
.f1{fill:var(--s1)}.f2{fill:var(--s2)}.f3{fill:var(--s3)}.f0{fill:var(--none)}
.ring{stroke:var(--surface);stroke-width:2}.bg{fill:var(--surface)}
</style><rect class="bg" width="720" height="290" rx="6"/><text x="16.0" y="24.0" class="t" text-anchor="start">pol_trend_ls: 14-day return R, weighted by live-likeness</text><text x="16.0" y="42.0" class="st" text-anchor="start">2245 windows; bar = weighted share; outliers are clipped into the end bins</text><line class="g" x1="70" x2="690" y1="240.0" y2="240.0"/><text x="64.0" y="243.5" text-anchor="end">0%</text><line class="g" x1="70" x2="690" y1="169.0" y2="169.0"/><text x="64.0" y="172.5" text-anchor="end">5%</text><line class="g" x1="70" x2="690" y1="97.9" y2="97.9"/><text x="64.0" y="101.4" text-anchor="end">10%</text><text x="132.0" y="255.0" text-anchor="middle">-10%</text><text x="287.0" y="255.0" text-anchor="middle">0%</text><text x="442.0" y="255.0" text-anchor="middle">10%</text><text x="597.0" y="255.0" text-anchor="middle">20%</text><line class="ax" x1="70" x2="690" y1="240" y2="240"/><text x="380.0" y="271.0" text-anchor="middle">R (mark-to-market)</text><path class="f1" d="M71.0,240.0 V238.9 Q71.0,234.9 75.0,234.9 H80.5 Q84.5,234.9 84.5,238.9 V240.0 Z"/><path class="f1" d="M86.5,240.0 V238.9 Q86.5,234.9 90.5,234.9 H96.0 Q100.0,234.9 100.0,238.9 V240.0 Z"/><path class="f1" d="M102.0,240.0 V237.2 Q102.0,233.2 106.0,233.2 H111.5 Q115.5,233.2 115.5,237.2 V240.0 Z"/><path class="f1" d="M117.5,240.0 V230.9 Q117.5,226.9 121.5,226.9 H127.0 Q131.0,226.9 131.0,230.9 V240.0 Z"/><path class="f1" d="M133.0,240.0 V232.1 Q133.0,228.1 137.0,228.1 H142.5 Q146.5,228.1 146.5,232.1 V240.0 Z"/><path class="f1" d="M148.5,240.0 V223.6 Q148.5,219.6 152.5,219.6 H158.0 Q162.0,219.6 162.0,223.6 V240.0 Z"/><path class="f1" d="M164.0,240.0 V207.4 Q164.0,203.4 168.0,203.4 H173.5 Q177.5,203.4 177.5,207.4 V240.0 Z"/><path class="f1" d="M179.5,240.0 V200.4 Q179.5,196.4 183.5,196.4 H189.0 Q193.0,196.4 193.0,200.4 V240.0 Z"/><path class="f1" d="M195.0,240.0 V166.4 Q195.0,162.4 199.0,162.4 H204.5 Q208.5,162.4 208.5,166.4 V240.0 Z"/><path class="f1" d="M210.5,240.0 V134.7 Q210.5,130.7 214.5,130.7 H220.0 Q224.0,130.7 224.0,134.7 V240.0 Z"/><path class="f1" d="M226.0,240.0 V131.3 Q226.0,127.3 230.0,127.3 H235.5 Q239.5,127.3 239.5,131.3 V240.0 Z"/><path class="f1" d="M241.5,240.0 V89.2 Q241.5,85.2 245.5,85.2 H251.0 Q255.0,85.2 255.0,89.2 V240.0 Z"/><path class="f1" d="M257.0,240.0 V133.6 Q257.0,129.6 261.0,129.6 H266.5 Q270.5,129.6 270.5,133.6 V240.0 Z"/><path class="f1" d="M272.5,240.0 V132.9 Q272.5,128.9 276.5,128.9 H282.0 Q286.0,128.9 286.0,132.9 V240.0 Z"/><path class="f1" d="M288.0,240.0 V150.3 Q288.0,146.3 292.0,146.3 H297.5 Q301.5,146.3 301.5,150.3 V240.0 Z"/><path class="f1" d="M303.5,240.0 V152.4 Q303.5,148.4 307.5,148.4 H313.0 Q317.0,148.4 317.0,152.4 V240.0 Z"/><path class="f1" d="M319.0,240.0 V159.2 Q319.0,155.2 323.0,155.2 H328.5 Q332.5,155.2 332.5,159.2 V240.0 Z"/><path class="f1" d="M334.5,240.0 V171.4 Q334.5,167.4 338.5,167.4 H344.0 Q348.0,167.4 348.0,171.4 V240.0 Z"/><path class="f1" d="M350.0,240.0 V179.1 Q350.0,175.1 354.0,175.1 H359.5 Q363.5,175.1 363.5,179.1 V240.0 Z"/><path class="f1" d="M365.5,240.0 V193.2 Q365.5,189.2 369.5,189.2 H375.0 Q379.0,189.2 379.0,193.2 V240.0 Z"/><path class="f1" d="M381.0,240.0 V209.5 Q381.0,205.5 385.0,205.5 H390.5 Q394.5,205.5 394.5,209.5 V240.0 Z"/><path class="f1" d="M396.5,240.0 V213.4 Q396.5,209.4 400.5,209.4 H406.0 Q410.0,209.4 410.0,213.4 V240.0 Z"/><path class="f1" d="M412.0,240.0 V231.5 Q412.0,227.5 416.0,227.5 H421.5 Q425.5,227.5 425.5,231.5 V240.0 Z"/><path class="f1" d="M427.5,240.0 V224.0 Q427.5,220.0 431.5,220.0 H437.0 Q441.0,220.0 441.0,224.0 V240.0 Z"/><path class="f1" d="M443.0,240.0 V236.5 Q443.0,232.5 447.0,232.5 H452.5 Q456.5,232.5 456.5,236.5 V240.0 Z"/><path class="f1" d="M458.5,240.0 V234.0 Q458.5,230.0 462.5,230.0 H468.0 Q472.0,230.0 472.0,234.0 V240.0 Z"/><path class="f1" d="M474.0,240.0 V239.4 Q474.0,235.4 478.0,235.4 H483.5 Q487.5,235.4 487.5,239.4 V240.0 Z"/><path class="f1" d="M489.5,240.0 V240.0 Q489.5,236.1 493.4,236.1 H499.1 Q503.0,236.1 503.0,240.0 V240.0 Z"/><path class="f1" d="M505.0,240.0 V240.0 Q505.0,237.2 507.8,237.2 H515.7 Q518.5,237.2 518.5,240.0 V240.0 Z"/><path class="f1" d="M520.5,240.0 V240.0 Q520.5,238.9 521.6,238.9 H532.9 Q534.0,238.9 534.0,240.0 V240.0 Z"/><path class="f1" d="M536.0,240.0 V240.0 Q536.0,238.4 537.6,238.4 H547.9 Q549.5,238.4 549.5,240.0 V240.0 Z"/><path class="f1" d="M551.5,240.0 V238.5 Q551.5,234.5 555.5,234.5 H561.0 Q565.0,234.5 565.0,238.5 V240.0 Z"/><path class="f1" d="M567.0,240.0 V240.0 Q567.0,239.4 567.6,239.4 H579.9 Q580.5,239.4 580.5,240.0 V240.0 Z"/><path class="f1" d="M582.5,240.0 V240.0 Q582.5,239.0 583.5,239.0 H595.0 Q596.0,239.0 596.0,240.0 V240.0 Z"/><path class="f1" d="M598.0,240.0 V240.0 Q598.0,238.2 599.8,238.2 H609.7 Q611.5,238.2 611.5,240.0 V240.0 Z"/><path class="f1" d="M613.5,240.0 V240.0 Q613.5,240.0 613.5,240.0 H627.0 Q627.0,240.0 627.0,240.0 V240.0 Z"/><path class="f1" d="M629.0,240.0 V240.0 Q629.0,238.8 630.2,238.8 H641.3 Q642.5,238.8 642.5,240.0 V240.0 Z"/><path class="f1" d="M644.5,240.0 V240.0 Q644.5,238.3 646.2,238.3 H656.3 Q658.0,238.3 658.0,240.0 V240.0 Z"/><path class="f1" d="M660.0,240.0 V240.0 Q660.0,239.0 661.0,239.0 H672.5 Q673.5,239.0 673.5,240.0 V240.0 Z"/><path class="f1" d="M675.5,240.0 V240.0 Q675.5,238.2 677.3,238.2 H687.2 Q689.0,238.2 689.0,240.0 V240.0 Z"/><line class="ax" stroke-dasharray="4 3" x1="271.6" x2="271.6" y1="62" y2="240"/><text x="275.6" y="72.0" class="v" text-anchor="start">pol_trend_ls weighted median -0.99%</text><line class="ax" stroke-dasharray="4 3" x1="279.6" x2="279.6" y1="62" y2="240"/><text x="283.6" y="85.0" class="v" text-anchor="start">BTC_HOLD weighted median -0.48%</text></svg>
